<svg width="48" height="48" viewBox="0 0 48 48" fill="none" xmlns="http://www.w3.org/2000/svg">
<path d="M24 48C17.5894 48 11.5625 45.5035 7.02938 40.9706C2.49647 36.4375 0 30.4106 0 24C0 17.5894 2.49647 11.5625 7.02938 7.02938C11.5625 2.49647 17.5894 0 24 0C30.4106 0 36.4375 2.49647 40.9706 7.02938C45.5035 11.5625 48 17.5894 48 24C48 30.4106 45.5035 36.4375 40.9706 40.9706C36.4375 45.5035 30.4106 48 24 48Z" fill="#00C1FD"/>
<path d="M40.9706 7.02938C36.4375 2.49647 30.4106 0 24 0V48C30.4106 48 36.4375 45.5035 40.9706 40.9706C45.5035 36.4375 48 30.4106 48 24C48 17.5894 45.5035 11.5625 40.9706 7.02938Z" fill="#08A8EE"/>
<path d="M28.2188 34.7812V20.7188H17.9062V23.5312H19.7812V34.7812H17.8125V37.5938H30V34.7812H28.2188Z" fill="#E4F7FF"/>
<path d="M24 17.9062C26.3262 17.9062 28.2188 16.0137 28.2188 13.6875C28.2188 11.3613 26.3262 9.46875 24 9.46875C21.6738 9.46875 19.7812 11.3613 19.7812 13.6875C19.7812 16.0137 21.6738 17.9062 24 17.9062Z" fill="#E4F7FF"/>
<path d="M24 17.9062C26.3262 17.9062 28.2188 16.0137 28.2188 13.6875C28.2188 11.3613 26.3262 9.46875 24 9.46875V17.9062Z" fill="#CBEDFD"/>
<path d="M28.2188 34.7812V20.7188H24V37.5938H30V34.7812H28.2188Z" fill="#CBEDFD"/>
</svg>
