<svg width="222" height="87" viewBox="0 0 222 87" fill="none" xmlns="http://www.w3.org/2000/svg">
<path d="M75.9501 15.6435C75.9631 15.6599 75.9761 15.6764 75.9859 15.6895L75.9762 15.6731L76.0022 15.7026C75.9892 15.6862 75.9761 15.6698 75.9664 15.6566L75.1818 14.635C74.2931 13.6987 73.1114 12.4405 72.1803 11.5469C69.3448 9.08639 68.9801 8.76773 66.5158 7.09232C64.4616 5.83083 64.0904 5.60416 61.74 4.46094L62.1306 4.7566C64.8164 6.27104 71.1125 9.8124 75.9501 15.6435Z" fill="url(#paint0_linear_92_809)"/>
<path d="M79.3977 20.2888C78.6847 19.2441 77.7471 17.8381 76.9886 16.8296L76.9235 16.7475L76.7477 16.5273L77.1611 17.1055C77.8448 18.0484 78.7628 19.3066 79.3977 20.2888Z" fill="url(#paint1_linear_92_809)"/>
<path d="M80.3776 25.2199C81.4259 28.032 83.1285 31.0379 83.4996 30.3776C83.9456 29.5826 81.6277 23.6431 80.0423 22.0564C79.6353 21.6983 79.5768 22.0399 79.5995 22.3881C79.6386 22.9499 79.9381 24.034 80.3776 25.2199Z" fill="url(#paint2_linear_92_809)"/>
<path d="M83.9001 44.9505C83.8969 44.9768 83.8936 45.0031 83.8903 45.0293L83.9066 44.9932L83.9099 45.0458C83.9131 45.0195 83.9164 44.9932 83.9197 44.9669C85.0591 42.5819 85.9608 40.6995 85.5637 37.0071L85.4399 36.2285L84.8247 33.2062C84.7628 33.4131 84.6912 33.6464 83.7601 33.9683C82.0087 31.1562 80.7358 29.2574 76.7902 25.8311L76.393 26.6063C83.4411 37.5721 83.8838 43.8106 83.9001 44.9505Z" fill="url(#paint3_linear_92_809)"/>
<path d="M86.0291 44.2411C86.0128 45.0295 85.9607 46.5867 85.7947 48.1734C85.8858 46.7936 86.0226 44.9507 86.0421 43.5676L86.0291 42.3423C86.0323 42.615 86.0486 43.249 86.0291 44.2411Z" fill="url(#paint4_linear_92_809)"/>
<path d="M81.2109 63.3959C81.1979 63.4189 81.1881 63.4386 81.1751 63.4616L81.1881 63.4452L81.1718 63.4813C81.1849 63.4583 81.1946 63.4386 81.2076 63.4156L81.8099 62.3019C82.3243 61.1029 83.0274 59.5096 83.4799 58.2875C84.0041 56.6252 84.6584 54.3946 85.0719 52.7028C85.5667 49.3881 85.5895 48.4321 84.7626 44.9302L84.3882 45.7613C84.5738 49.3487 84.9189 56.0241 81.2109 63.3959Z" fill="url(#paint5_linear_92_809)"/>
<path d="M78.8899 67.4831L80.5437 64.7499L80.7455 64.3853L80.3907 64.9963C79.9414 65.742 79.3684 66.7571 78.8899 67.4831Z" fill="url(#paint6_linear_92_809)"/>
<path d="M79.3977 55.5973C78.4047 58.4423 78.421 61.3266 79.8502 60.6334C81.709 59.7333 83.9227 53.5507 82.5196 51.9903C81.6244 51.2577 80.2018 53.2912 79.3977 55.5973Z" fill="url(#paint7_linear_92_809)"/>
<path d="M70.4679 72.2596C70.4516 72.2761 70.4386 72.2892 70.4223 72.3056L70.4516 72.2892L70.4353 72.3188C70.4516 72.3024 70.4646 72.2892 70.4809 72.2728C73.5996 70.4134 77.8741 67.8707 80.664 64.1454L81.2174 62.9463C80.3775 63.2453 79.8534 63.4095 77.1904 63.8859C76.7965 61.6585 76.484 59.901 74.0684 56.4385L73.082 57.2499C73.9089 66.5994 71.5292 70.8635 70.4679 72.2596Z" fill="url(#paint8_linear_92_809)"/>
<path d="M32.0762 85.5904C32.0925 85.5937 32.1055 85.597 32.1185 85.6003L32.086 85.5904L32.099 85.5937C32.086 85.5904 32.0697 85.5871 32.0534 85.5839L30.2108 85.0615L31.1582 85.344L31.7311 85.505L32.0762 85.5904Z" fill="url(#paint9_linear_92_809)"/>
<path d="M42.855 85.2783C40.4231 86.4281 38.4894 86.7928 33.4532 85.9123L33.017 85.8335C35.1591 86.2967 36.6175 86.5891 38.8247 86.7205C39.0559 86.7895 39.3716 86.842 39.6125 86.8716C39.9478 86.8946 40.3938 86.9275 40.7292 86.9439L41.4584 86.9767C41.3835 86.9537 41.2826 86.9209 41.2045 86.8979C41.2305 86.5102 41.4323 86.3131 42.855 85.2783Z" fill="url(#paint10_linear_92_809)"/>
<path d="M42.8551 85.2783C43.8643 86.1916 43.8643 86.1916 44.0433 86.7205C43.9326 86.8683 43.6787 86.9669 43.4996 86.9997C43.7926 86.9932 44.1866 86.9866 44.4795 86.9767L45.4497 86.9307C45.7264 86.9012 46.0975 86.8552 46.3677 86.796C48.1159 86.6876 49.5613 86.5628 52.2601 85.9748L51.8662 86.047C47.7513 86.6778 45.3553 86.7271 42.8551 85.2783Z" fill="url(#paint11_linear_92_809)"/>
<path d="M53.0414 85.7876C53.0284 85.7909 53.0121 85.7942 52.9991 85.7975L53.0088 85.7942L52.9795 85.8007C52.9925 85.7975 53.0056 85.7942 53.0218 85.7909L53.3832 85.6923L54.9393 85.2686L53.0414 85.7876Z" fill="url(#paint12_linear_92_809)"/>
<path d="M73.73 72.6083C70.5005 75.8967 70.5168 76.1628 70.5266 76.2877C71.0702 76.7147 76.2074 71.5834 76.8454 69.9769C76.865 69.9079 76.865 69.9079 76.8487 69.8521C76.7575 69.8225 76.5362 69.7503 73.73 72.6083Z" fill="url(#paint13_linear_92_809)"/>
<path d="M58.0647 82.9889C58.0451 82.9955 58.0223 83.0021 58.0028 83.0086L58.0321 83.0021L57.9995 83.0152C58.0191 83.0086 58.0419 83.0021 58.0614 82.9955C61.1639 82.1676 64.3705 81.3135 67.4078 79.2931L69.1853 77.9857C68.9021 78.1171 68.7979 78.1664 67.5511 78.3536C68.8923 76.8523 70.048 75.558 70.7642 73.0186L69.8006 73.5672C68.3812 75.4463 64.6081 80.4429 58.0647 82.9889Z" fill="url(#paint14_linear_92_809)"/>
<path d="M59.6109 83.3077C58.3999 83.7578 57.3711 84.0962 56.7591 84.2999C55.7825 84.6218 55.4146 84.7433 55.2681 84.8452C55.2811 84.8583 55.2974 84.8715 55.3072 84.8846C56.6647 84.8485 60.1774 83.541 62.8241 82.0824C62.8664 82.0594 62.9087 82.0331 62.951 82.0068C62.8436 82.0265 62.8436 82.0265 62.2153 82.2861C61.5088 82.5719 60.6494 82.9234 59.6109 83.3077Z" fill="url(#paint15_linear_92_809)"/>
<path d="M42.8551 85.2785C46.8007 85.8172 49.6102 86.149 52.5792 85.8599L53.5786 85.6365C53.4484 85.5708 53.2172 85.4986 51.9899 85.3902C53.9985 84.8744 55.4765 84.4539 57.6609 83.3501L56.668 83.5735C51.7034 85.1963 48.5326 85.8271 42.8551 85.2785Z" fill="url(#paint16_linear_92_809)"/>
<path d="M59.3245 79.5855C55.7434 81.8029 56.1048 81.9311 56.2448 81.9803C56.502 82.0723 58.6506 81.6518 61.5219 80.0618C62.9934 79.2471 64.4811 77.9988 64.263 77.5454C64.2532 77.5257 64.2337 77.506 64.2207 77.4896C63.9635 77.299 62.9836 77.3187 59.3245 79.5855Z" fill="url(#paint17_linear_92_809)"/>
<path d="M42.8551 85.2787C48.0899 84.8188 51.3388 84.418 56.7657 83.2584L57.8302 82.8083C56.4564 82.9134 54.9003 83.0317 52.6215 83.2912C53.8195 82.3977 54.5813 81.7472 55.037 80.2656L53.9725 80.719C50.9189 83.2846 48.5912 84.5527 42.8551 85.2787Z" fill="url(#paint18_linear_92_809)"/>
<path d="M60.9685 4.13611C60.9848 4.14597 61.0011 4.15582 61.0206 4.16568L61.0108 4.15911L61.0466 4.17553L60.9913 4.14597C60.6234 3.92587 60.1319 3.62692 59.7445 3.44952L58.6604 3.00274C56.2806 2.12233 56.1895 2.0862 54.705 1.65584L53.2726 1.27148C55.2845 1.84638 58.0419 2.63481 60.9685 4.13611Z" fill="url(#paint19_linear_92_809)"/>
<path d="M46.5206 1.72798C46.5239 1.73455 46.5271 1.74112 46.5304 1.74769L46.5434 1.73783L46.5694 1.74769C46.5662 1.74112 46.5629 1.73455 46.5597 1.72798C48.0572 0.706306 48.1483 0.611035 48.1842 0.344939C48.1549 0.335084 48.1158 0.318658 48.0865 0.308803L47.0871 0.200393C46.602 0.157686 45.9542 0.105124 45.4691 0.0722732L45.0198 0.0558466L44.2027 0.0164266C43.9227 0.00985638 43.5451 0 43.2651 0C42.7768 0 42.1257 0.00657126 41.6407 0.0164266C43.6949 0.252956 46.5076 1.71484 46.5206 1.72798Z" fill="url(#paint20_linear_92_809)"/>
<path d="M51.3714 1.47803C53.7316 2.89721 56.0397 3.36698 55.9388 2.81179C55.8346 2.2369 53.2791 1.20537 50.9644 0.80458C50.5803 0.742163 50.538 0.761874 50.4891 0.78487C50.4891 0.834147 50.4826 0.942557 51.3714 1.47803Z" fill="url(#paint21_linear_92_809)"/>
<path d="M60.2881 10.0684C60.2946 10.0816 60.3011 10.0947 60.3076 10.1078L60.3207 10.0914L60.3597 10.1177C60.3532 10.1046 60.3467 10.0914 60.3402 10.0783C61.4926 8.36014 62.9283 6.22482 61.2419 4.44756L60.1676 3.91209C59.3766 4.01721 58.2957 4.15847 56.5866 4.43113C53.9432 3.53429 51.8532 2.82471 47.9792 1.89502L47.6145 2.19068C55.6523 6.29052 60.2686 10.0454 60.2881 10.0684Z" fill="url(#paint22_linear_92_809)"/>
<path d="M36.3506 1.26191C35.8167 1.73497 36.1586 2.15546 37.1319 2.21788C38.9908 2.33943 41.1557 1.12065 40.6348 0.506333C40.4167 0.246808 39.7624 0.282944 39.4824 0.296085C38.203 0.384783 36.8845 0.788849 36.3506 1.26191Z" fill="url(#paint23_linear_92_809)"/>
<path d="M35.2502 8.9616C35.247 8.97475 35.2437 8.98788 35.2405 9.00102L35.2795 8.97804L35.3023 8.99775C35.3056 8.98461 35.3088 8.97146 35.3121 8.95832C39.1926 6.25466 39.3131 6.1791 45.7003 2.09898L45.046 1.75732C42.5425 2.22381 40.4948 2.62788 36.9561 3.55429C34.6317 3.14693 33.5737 2.95968 30.9042 2.66731L29.908 3.11737C30.2336 4.1489 30.4712 4.89133 35.2502 8.9616Z" fill="url(#paint24_linear_92_809)"/>
<path d="M30.0447 2.75248C30.0317 2.75905 30.0187 2.7689 30.0089 2.77547L30.0382 2.76233L30.0415 2.7689C30.0545 2.76233 30.0675 2.75247 30.0773 2.7459C33.0821 1.53698 35.2535 0.663133 38.841 0.193359C38.3429 0.249207 37.6788 0.321483 37.1807 0.387186C34.6219 0.781401 33.909 0.932515 31.2883 1.62239C31.08 1.72095 30.7674 1.79979 30.5982 1.95419C30.3833 2.1513 30.2238 2.52252 30.0447 2.75248Z" fill="url(#paint25_linear_92_809)"/>
<path d="M23.0911 4.88833C22.8242 5.03616 22.7656 5.08544 22.7363 5.10844C22.8111 5.13143 23.0781 5.01974 24.6049 4.27401C26.161 3.51515 27.2744 2.98296 28.5017 2.51318C27.9222 2.73329 27.1507 3.01909 26.5777 3.25234C25.562 3.70897 24.2077 4.32329 23.2116 4.82591C23.1725 4.84234 23.1269 4.86862 23.0911 4.88833Z" fill="url(#paint26_linear_92_809)"/>
<path d="M14.1971 13.0286C14.1874 13.0418 14.1743 13.0582 14.1646 13.0713L14.2004 13.0418L14.1971 13.0582C14.2069 13.0451 14.2199 13.0286 14.2297 13.0155C17.0847 10.5254 21.4015 6.76062 28.5212 3.39008L28.6254 3.11084C25.7345 4.17522 23.6054 4.99979 20.4314 6.73762C20.363 6.71134 20.2686 6.67521 20.2002 6.64564C20.1904 6.62264 20.1774 6.58979 20.1709 6.56679C20.1774 6.56022 20.1839 6.55365 20.1904 6.55037L19.6142 6.9183C18.8329 7.46692 17.7749 8.17322 17.0131 8.75141C16.4076 9.2836 15.5774 9.99647 15.1347 10.6699C14.6594 11.3894 14.5227 12.2468 14.1971 13.0286Z" fill="url(#paint27_linear_92_809)"/>
<path d="M66.5125 9.94707C68.7002 12.6047 71.591 14.267 71.7571 13.3012C71.9459 12.1908 68.3421 8.70858 66.086 7.8216C65.2038 7.51936 65.3015 8.03841 65.5424 8.5279C65.7279 8.90897 66.073 9.41488 66.5125 9.94707Z" fill="url(#paint28_linear_92_809)"/>
<path d="M75.7093 25.1674C75.7125 25.1871 75.719 25.2068 75.7223 25.2265L75.7353 25.2035L75.7679 25.2429L75.7483 25.1805C76.9919 22.7035 78.3983 19.8947 76.5817 16.5308L75.6995 15.4992C75.2079 15.6766 75.2079 15.6766 72.4212 16.2056C69.309 14.1819 67.1571 12.8317 62.3716 10.6143L62.0102 11.1859C72.5873 19.8225 75.6865 25.1214 75.7093 25.1674Z" fill="url(#paint29_linear_92_809)"/>
<path d="M44.6976 7.12231C45.1241 9.62886 49.8576 10.7458 51.189 8.65647C52.1136 7.20773 50.3882 4.93114 47.556 4.72417C45.5278 4.66504 44.4925 5.92324 44.6976 7.12231Z" fill="url(#paint30_linear_92_809)"/>
<path d="M49.3725 20.7785C49.3725 20.7982 49.3757 20.8179 49.3757 20.8376L49.405 20.8113L49.4474 20.8409C49.4474 20.8212 49.4441 20.8015 49.4441 20.7818C54.4413 16.1267 57.4558 13.3212 59.5556 10.7785L58.5204 9.97369C55.4179 10.6307 52.9014 11.1793 48.7702 12.2536C44.9613 11.0216 42.383 10.2036 37.5779 9.021L36.6241 9.73716C48.9069 19.9605 49.3692 20.7719 49.3725 20.7785Z" fill="url(#paint31_linear_92_809)"/>
<path d="M59.6891 19.2537C60.5551 22.8476 65.1192 24.9895 66.6656 22.5257C67.9352 20.5053 65.8745 16.4646 62.4823 15.7813C60.1612 15.4528 59.2268 17.3286 59.6891 19.2537Z" fill="url(#paint32_linear_92_809)"/>
<path d="M64.4355 38.0221C64.4355 38.0484 64.4323 38.0746 64.4323 38.1009L64.4616 38.0615L64.4941 38.1141C64.4974 38.0878 64.4974 38.0615 64.4974 38.0352C66.9097 35.6075 71.9329 30.5517 74.84 26.0642L73.9545 24.8356C71.4999 25.3678 68.7164 25.969 64.3932 27.0662C60.4345 24.944 57.713 23.5248 51.9475 21.1924L51.023 22.1155C61.3819 32.4308 64.429 37.9859 64.4355 38.0221Z" fill="url(#paint33_linear_92_809)"/>
<path d="M29.6736 18.8173C29.5238 22.155 33.9838 23.3968 36.7933 20.8048C39.3358 18.4559 38.2485 14.7601 34.9442 14.5269C34.7684 14.5138 34.5307 14.5203 34.3517 14.5236C31.5682 14.7569 29.7582 16.9349 29.6736 18.8173Z" fill="url(#paint34_linear_92_809)"/>
<path d="M33.3197 36.6451C33.3197 36.6714 33.3197 36.6976 33.3229 36.7239L33.3653 36.6746L33.3978 36.7173C33.3978 36.6911 33.3978 36.6648 33.3946 36.6385C37.389 32.1444 40.2734 28.8955 47.6796 21.9606L46.6541 20.9487C42.1127 22.4073 38.7368 23.5276 33.4206 25.6859C28.6578 24.339 27.1636 23.9316 21.1182 22.5946L20.0764 23.7444C22.4692 26.2148 22.4692 26.2148 26.0014 29.5853C27.2222 30.7516 33.3099 36.6221 33.3197 36.6451Z" fill="url(#paint35_linear_92_809)"/>
<path d="M21.6521 9.28728C20.695 10.7656 21.3689 11.6756 23.1236 11.2748C26.3368 10.5422 29.0225 7.01068 27.6096 6.13684C27.2222 5.89703 26.6688 5.98573 26.4051 6.02844C24.5137 6.42594 22.466 8.02907 21.6521 9.28728Z" fill="url(#paint36_linear_92_809)"/>
<path d="M19.3473 22.6508C19.344 22.6705 19.3408 22.6903 19.3375 22.71L19.3701 22.6771L19.3994 22.7001C19.4026 22.6804 19.4059 22.6607 19.4091 22.641C22.2023 19.7763 26.0275 15.8506 34.2183 9.88811L33.5444 9.27051C28.7654 10.9229 25.7866 12.0432 21.7824 13.9354C16.3588 12.9039 16.3588 12.9039 15.4082 12.7035L14.386 13.6397C14.6073 15.4991 14.8547 17.6082 19.3473 22.6508Z" fill="url(#paint37_linear_92_809)"/>
<path d="M8.49023 17.3454C8.79624 16.9479 11.6448 13.4591 13.8031 11.4453C10.87 14.3625 10.6942 14.5366 8.9818 16.7015L8.4479 17.4012C8.46093 17.3848 8.47721 17.3618 8.49023 17.3454Z" fill="url(#paint38_linear_92_809)"/>
<path d="M2.34069 29.7633C2.33418 29.783 2.32767 29.806 2.32442 29.8257L2.34069 29.7863V29.806C2.3472 29.7863 2.35371 29.7633 2.35697 29.7435C4.01074 25.9722 6.27656 20.8113 12.8103 14.3002L12.934 13.7417C10.2808 15.8935 8.51958 17.4079 6.48165 20.3218L6.50769 20.2265L5.10458 22.6247C4.46651 23.9124 3.62009 25.6306 3.05364 26.9512C2.78669 27.7823 2.53602 28.9157 2.34069 29.7633Z" fill="url(#paint39_linear_92_809)"/>
<path d="M6.87561 24.2934C6.19521 26.5043 6.82677 27.7592 8.22663 26.9773C10.7724 25.5549 13.1489 19.5135 11.3682 18.9945C11.1012 18.9157 10.8212 19.0208 10.6552 19.0832C9.08933 19.7993 7.47461 22.3453 6.87561 24.2934Z" fill="url(#paint40_linear_92_809)"/>
<path d="M7.15557 41.7016C7.15882 41.7279 7.16208 41.7541 7.16208 41.7804L7.18161 41.7246L7.2044 41.7607C7.20114 41.7344 7.19789 41.7081 7.19789 41.6819C8.91027 37.3061 11.0426 31.8626 17.6545 24.2148L17.0099 23.3936C13.2335 25.7687 10.6975 27.4474 7.34764 30.7095C5.11764 30.1314 3.8122 29.7798 2.8909 29.3396L2.36026 30.6504C2.51001 32.5821 2.78998 36.1793 6.93094 41.4092C6.99605 41.4979 7.11325 41.5997 7.15557 41.7016Z" fill="url(#paint41_linear_92_809)"/>
<path d="M1.65053 31.5801L1.77098 30.8081C1.5789 31.4093 1.28591 32.201 1.13291 32.812L0.442749 36.0873L0 39.4743C0.123708 38.5643 0.224631 37.3389 0.410193 36.4421C0.722718 34.9704 1.31521 33.0486 1.65053 31.5801Z" fill="url(#paint42_linear_92_809)"/>
<path d="M73.948 35.9948C74.1011 40.0651 76.9724 42.8969 78.7466 40.7287C80.4655 38.6295 79.6093 33.0842 76.8031 31.895C74.8954 31.2774 73.8536 33.4949 73.948 35.9948Z" fill="url(#paint43_linear_92_809)"/>
<path d="M73.2352 55.7911C73.2254 55.8141 73.2156 55.8404 73.2091 55.8634L73.2384 55.8371L73.2514 55.8765L73.2742 55.8009C78.4048 51.5533 81.5822 48.5868 83.6852 45.0717L83.4638 43.6624C81.0385 44.234 78.5937 44.6939 76.1586 45.213C73.5249 42.575 71.6725 40.7945 66.9553 37.6079L66.0145 38.5902C73.2091 50.4757 73.2417 55.7451 73.2352 55.7911Z" fill="url(#paint44_linear_92_809)"/>
<path d="M45.1925 32.2695C45.5082 36.4975 50.4859 38.4094 53.0251 35.2754C55.2584 32.5192 53.8064 27.7065 49.6394 27.3517C46.6607 27.2893 45.0102 29.855 45.1925 32.2695Z" fill="url(#paint45_linear_92_809)"/>
<path d="M48.8451 51.724C48.8418 51.7503 48.8418 51.7733 48.8386 51.7995L48.8679 51.7667L48.9037 51.8028C48.9069 51.7765 48.9069 51.7535 48.9102 51.7273C53.546 47.1084 58.3543 42.6735 63.0324 38.094L62.1795 36.8161C57.7944 38.0743 54.5389 39.027 49.4604 40.7549C45.1762 38.9087 42.2462 37.6735 36.2366 35.6367L35.2177 36.8325C46.4686 48.0184 48.8386 51.7076 48.8451 51.724Z" fill="url(#paint46_linear_92_809)"/>
<path d="M59.2202 49.7832C58.8458 53.6333 62.0004 55.8409 64.6666 53.5906C67.437 51.2516 67.3654 46.0677 63.7551 45.2891C61.2549 44.9573 59.4546 47.362 59.2202 49.7832Z" fill="url(#paint47_linear_92_809)"/>
<path d="M57.3614 67.5947C57.3549 67.6111 57.3451 67.6308 57.3386 67.6472L57.3679 67.6242L57.3809 67.6538C57.3874 67.6374 57.3972 67.6177 57.4037 67.6012C62.1502 63.9679 66.9846 60.4561 71.679 56.7537L71.4543 55.5152C67.9091 56.2971 65.2624 56.8983 60.9164 58.0809C57.9995 56.0015 55.8899 54.5658 51.1858 52.1611L50.1863 53.1927C57.4005 63.5638 57.3647 67.5585 57.3614 67.5947Z" fill="url(#paint48_linear_92_809)"/>
<path d="M29.947 49.3556C30.7414 53.3273 35.3674 54.6085 37.4444 51.4285C39.3749 48.4752 37.669 43.8694 33.6941 43.9483C30.8553 44.2045 29.4652 46.9509 29.947 49.3556Z" fill="url(#paint49_linear_92_809)"/>
<path d="M36.4092 66.6685C36.4124 66.6882 36.4157 66.7046 36.419 66.7243L36.4417 66.6948L36.4678 66.7211C36.4645 66.7013 36.4613 66.6849 36.458 66.6652C38.3104 63.6002 40.4102 60.1278 47.162 53.0549L46.3058 51.938C42.0998 53.5773 39.2349 54.7303 34.8889 56.9248C30.7968 55.5943 29.1039 55.0424 22.7883 53.4524L22.2512 54.6646C26.3172 57.9399 35.8395 65.614 36.4092 66.6685Z" fill="url(#paint50_linear_92_809)"/>
<path d="M14.8092 35.1242C15.0859 38.8791 18.6799 40.0683 21.1183 37.2103C23.8366 34.0204 22.414 28.8726 18.9111 29.2241C18.8264 29.234 18.7125 29.2537 18.6246 29.2668C16.0463 29.8352 14.6367 32.7491 14.8092 35.1242Z" fill="url(#paint51_linear_92_809)"/>
<path d="M21.0304 53.4592C21.0369 53.4855 21.0434 53.5084 21.0499 53.5347L21.0662 53.4986L21.1085 53.5249C21.102 53.4986 21.0955 53.4756 21.089 53.4493C22.8111 49.9572 24.9565 45.6143 32.2976 37.0138L31.2363 35.9429C25.9787 38.4757 22.8079 40.1248 18.999 42.6511C15.5905 41.8265 12.1755 41.025 8.76702 40.1938L8.24289 41.5637C10.5608 44.1655 12.9601 46.8561 20.6593 53.1569C20.7732 53.2456 20.9522 53.3376 21.0304 53.4592Z" fill="url(#paint52_linear_92_809)"/>
<path d="M0.08465 42.9529C0.146504 45.2 0.556688 46.5666 1.03524 46.1329C2.10955 45.1605 2.33744 36.6586 1.29569 36.455C1.18174 36.432 1.10361 36.5174 1.02223 36.6094C0.442753 37.4274 0.0130297 40.3314 0.08465 42.9529Z" fill="url(#paint53_linear_92_809)"/>
<path d="M5.28363 60.0488C5.2934 60.0718 5.30642 60.0947 5.31619 60.1177L5.30641 60.0816L5.3292 60.1013C5.31944 60.0783 5.30641 60.0553 5.29665 60.0323C4.613 56.1822 3.67542 50.9063 6.33514 42.3715L5.70684 41.4878C3.95539 44.0436 2.57508 46.0607 1.73517 49.8649C0.794338 49.5035 0.276713 49.3064 0.153006 48.9056L0.677142 52.1546C0.960368 53.1631 1.33474 54.5363 1.86213 55.4397C2.829 57.102 4.20933 58.4588 5.28363 60.0488Z" fill="url(#paint54_linear_92_809)"/>
<path d="M7.71221 54.697C8.93627 57.6766 11.2867 58.7607 12.2015 56.7666C13.4874 53.9644 11.0784 47.9001 8.38284 48.8232C6.83974 49.559 6.79091 52.4532 7.71221 54.697Z" fill="url(#paint55_linear_92_809)"/>
<path d="M18.7906 70.0716C18.8036 70.088 18.8166 70.1044 18.8296 70.1209L18.8264 70.088L18.8589 70.1077C18.8459 70.0913 18.8329 70.0749 18.8199 70.0584C18.1525 66.9113 17.241 62.5979 20.0635 55.0881L18.9989 54.188C16.6583 56.2872 14.8091 57.9462 12.9763 61.1426C7.08065 59.9074 7.08065 59.9074 5.99658 59.6643L6.26027 60.8929C8.45446 62.8771 11.1858 65.3476 18.4325 69.8449C18.5399 69.9172 18.6962 69.9862 18.7906 70.0716Z" fill="url(#paint56_linear_92_809)"/>
<path d="M5.54075 65.1636C4.75943 63.7839 2.82569 59.6183 2.0932 57.4731L3.02752 59.9896C3.74373 61.5697 4.73665 63.659 5.55703 65.1866C5.55052 65.18 5.544 65.1702 5.54075 65.1636Z" fill="url(#paint57_linear_92_809)"/>
<path d="M14.451 75.8667C14.4673 75.8798 14.4835 75.893 14.4998 75.9061L14.4705 75.8766L14.4901 75.8897C14.4738 75.8766 14.4575 75.8634 14.4412 75.8503C11.8173 73.1598 7.84889 69.0895 5.62215 61.7308L4.9678 61.0146C5.27382 63.3241 5.51472 65.1473 7.5559 68.3438L7.51033 68.2945C8.35675 69.4279 9.48965 70.9423 10.3947 72.0264L12.1982 73.9909C12.8526 74.5855 13.7641 75.3214 14.451 75.8667Z" fill="url(#paint58_linear_92_809)"/>
<path d="M65.0834 66.7076C63.8267 68.9908 63.7681 71.1951 65.6921 70.7122C69.0127 69.8778 72.138 64.4803 69.9796 63.3075C69.934 63.2812 69.8689 63.2582 69.8201 63.2353C68.3095 62.7622 66.226 64.6281 65.0834 66.7076Z" fill="url(#paint59_linear_92_809)"/>
<path d="M54.9004 79.9696C54.8841 79.9795 54.8678 79.9926 54.8515 80.0025L54.8841 79.9893L54.8678 80.009L54.9134 79.9762C60.77 77.3744 65.23 75.3573 69.3449 73.1201L69.8983 72.1707C66.874 72.6339 65.2105 72.8902 62.427 73.4486C61.688 71.6517 61.0825 70.3968 58.8948 68.1333L57.8694 68.9053C58.4 75.4 56.5477 78.5077 54.9004 79.9696Z" fill="url(#paint60_linear_92_809)"/>
<path d="M44.4957 64.0403C44.5641 67.1284 47.1392 69.0535 49.4506 66.7539C51.8433 64.3721 51.5341 59.9307 48.2168 59.6186C46.1105 59.5857 44.4404 61.5666 44.4957 64.0403Z" fill="url(#paint61_linear_92_809)"/>
<path d="M45.2185 78.3602C45.2153 78.3734 45.212 78.3865 45.2088 78.3997L45.2251 78.38L45.2348 78.3997C45.2381 78.3865 45.2413 78.3734 45.2446 78.3602C47.0644 76.3038 49.1251 73.9713 55.9323 68.5903L55.7109 67.6113C52.3969 68.6593 50.1408 69.3984 46.7193 70.8307C44.2126 69.405 42.4058 68.426 38.4146 66.8262L37.8677 67.7723C44.9028 75.3215 45.2088 78.0712 45.2185 78.3602Z" fill="url(#paint62_linear_92_809)"/>
<path d="M50.2221 76.9604C50.2059 76.9933 48.5 80.2291 50.411 79.6247C52.9014 78.8395 56.1048 74.8054 54.3761 73.9611C54.298 73.925 54.1873 73.8954 54.1027 73.8757C52.9014 73.7279 51.2704 75.0255 50.2221 76.9604Z" fill="url(#paint63_linear_92_809)"/>
<path d="M42.8551 85.2785C45.2999 84.1681 45.2999 84.1681 53.4581 80.5381L54.0181 79.9073C51.7425 80.4592 50.2027 80.8534 47.9889 81.6386C47.7936 80.7812 47.6276 80.042 46.0975 78.5933L45.5408 79.224C45.8892 82.0755 45.5864 83.6261 42.8551 85.2785Z" fill="url(#paint64_linear_92_809)"/>
<path d="M37.0179 76.77C37.7406 78.1826 39.8957 80.5019 40.6087 78.3928C41.263 76.4579 40.1725 73.1366 37.9034 73.1563C36.4905 73.291 36.0836 74.9467 37.0179 76.77Z" fill="url(#paint65_linear_92_809)"/>
<path d="M42.855 85.2786C42.09 83.6853 42.1421 82.4829 44.4307 79.1781L44.193 78.5112C42.5653 79.4902 41.5105 80.1669 40.5795 81.3134C38.9712 80.5152 37.9946 80.0552 35.0028 79.1026L35.2568 79.7694C39.1698 82.2136 41.071 83.4751 42.855 85.2786Z" fill="url(#paint66_linear_92_809)"/>
<path d="M22.7492 66.0838C24.4779 68.9649 27.7724 70.2527 28.4463 67.5917C29.1364 64.8585 26.4702 60.7455 23.5566 61.143C21.753 61.5504 21.3852 63.8138 22.7492 66.0838Z" fill="url(#paint67_linear_92_809)"/>
<path d="M34.1824 79.0466C34.1955 79.0598 34.2052 79.0729 34.2183 79.0828L34.2117 79.0631L34.241 79.0795C34.228 79.0664 34.2183 79.0532 34.2052 79.0434C33.6355 76.9343 32.851 74.0467 35.973 67.8871L35.0842 67.0264C32.0827 68.9547 30.4647 70.121 28.7979 71.9442C26.1414 71.251 24.224 70.7484 20.1025 69.8614L20.35 70.8437C23.2441 72.5881 23.6901 72.8575 27.3622 75.0092C33.6746 78.705 34.1499 79.0204 34.1824 79.0466Z" fill="url(#paint68_linear_92_809)"/>
<path d="M12.2048 71.6882C13.966 73.4523 15.7728 74.3951 15.7825 73.5574C15.7988 72.1875 10.6291 65.9425 9.55156 66.9806C9.12509 67.6442 10.3654 69.8452 12.2048 71.6882Z" fill="url(#paint69_linear_92_809)"/>
<path d="M27.932 81.662C27.9515 81.6719 27.971 81.6784 27.9938 81.6883L27.9645 81.6719L27.9971 81.6817C27.9775 81.6719 27.958 81.6653 27.9352 81.6554C25.3015 79.9242 21.3201 77.3092 19.1096 71.3631L18.0614 70.7192C17.8172 72.4505 17.6251 73.8171 18.6376 76.1857C15.0696 75.6272 15.0696 75.6272 14.4087 75.5024L15.3007 76.3565C16.795 77.2107 18.2046 78.0188 20.8611 79.1357C23.1725 80.1081 25.588 80.7849 27.932 81.662Z" fill="url(#paint70_linear_92_809)"/>
<path d="M26.9878 79.1782C28.8597 80.3478 31.4674 81.3497 31.3306 80.6993C31.1483 79.8189 25.8745 75.2821 24.2532 75.7814C23.5533 76.1362 24.5723 77.6671 26.9878 79.1782Z" fill="url(#paint71_linear_92_809)"/>
<path d="M42.8551 85.2785C38.7271 84.2273 36.5362 83.2056 34.4527 79.9271L33.5216 79.3916C33.3947 80.3903 33.2873 81.2543 34.342 82.5158C32.4246 82.1478 31.1159 81.9014 28.4431 81.5335L29.3709 82.069C32.8347 83.0545 36.419 84.0795 42.8551 85.2785Z" fill="url(#paint72_linear_92_809)"/>
<path d="M25.6401 82.8512C27.2223 83.4491 28.8923 83.8532 29.1397 83.7053C29.003 83.4228 21.2875 80.118 20.8839 80.1705C20.8741 80.1837 20.8611 80.2034 20.8513 80.2198C20.8578 80.233 20.8643 80.2494 20.8708 80.2625C21.2387 80.729 23.2311 81.9412 25.6401 82.8512Z" fill="url(#paint73_linear_92_809)"/>
<path d="M32.6198 85.1897C35.9273 85.4262 38.0824 85.4886 42.8517 85.2784C37.6592 85.2554 34.4493 84.8316 29.1331 82.371L28.0393 82.0557C29.4392 83.0675 30.4549 83.7409 32.7955 84.5622C31.3989 84.5622 30.9106 84.5655 29.8884 84.6345C30.7837 84.8546 31.6952 85.0418 32.6198 85.1897Z" fill="url(#paint74_linear_92_809)"/>
<path d="M120.763 40.1113V62.3971H117.859V45.7793L110.519 62.3971H108.477L101.104 45.7471V62.3971H98.2001V40.1113H101.328L109.498 58.5325L117.668 40.1113H120.763Z" fill="black"/>
<path d="M124.604 53.5085C124.604 51.7051 124.965 50.127 125.689 48.7744C126.412 47.4003 127.401 46.3376 128.657 45.5861C129.933 44.8347 131.348 44.4589 132.901 44.4589C134.433 44.4589 135.763 44.7917 136.891 45.4573C138.018 46.1229 138.859 46.9602 139.412 47.9693V44.7488H142.348V62.3971H139.412V59.1122C138.837 60.1428 137.976 61.0016 136.827 61.6886C135.699 62.3542 134.38 62.6869 132.869 62.6869C131.316 62.6869 129.912 62.3005 128.657 61.5276C127.401 60.7546 126.412 59.6704 125.689 58.2749C124.965 56.8793 124.604 55.2905 124.604 53.5085ZM139.412 53.5407C139.412 52.2096 139.146 51.0502 138.614 50.0626C138.082 49.075 137.359 48.3235 136.444 47.8083C135.55 47.2715 134.561 47.0031 133.476 47.0031C132.391 47.0031 131.401 47.2608 130.508 47.776C129.614 48.2913 128.901 49.0428 128.37 50.0304C127.838 51.018 127.572 52.1774 127.572 53.5085C127.572 54.8611 127.838 56.042 128.37 57.0511C128.901 58.0387 129.614 58.8009 130.508 59.3376C131.401 59.8529 132.391 60.1106 133.476 60.1106C134.561 60.1106 135.55 59.8529 136.444 59.3376C137.359 58.8009 138.082 58.0387 138.614 57.0511C139.146 56.042 139.412 54.8719 139.412 53.5407Z" fill="black"/>
<path d="M155.936 44.4267C157.256 44.4267 158.447 44.7166 159.511 45.2963C160.575 45.8545 161.404 46.7025 162 47.8405C162.617 48.9784 162.926 50.3632 162.926 51.9949V62.3971H160.053V52.4136C160.053 50.653 159.617 49.3112 158.745 48.3879C157.873 47.4433 156.681 46.9709 155.171 46.9709C153.639 46.9709 152.415 47.454 151.5 48.4201C150.607 49.3863 150.16 50.7926 150.16 52.639V62.3971H147.256V38.5654H150.16V47.2608C150.734 46.359 151.522 45.6613 152.522 45.1674C153.543 44.6736 154.681 44.4267 155.936 44.4267Z" fill="black"/>
<path d="M166.585 53.5085C166.585 51.7051 166.946 50.127 167.67 48.7744C168.393 47.4003 169.382 46.3376 170.638 45.5861C171.914 44.8347 173.329 44.4589 174.882 44.4589C176.414 44.4589 177.744 44.7917 178.872 45.4573C179.999 46.1229 180.84 46.9602 181.393 47.9693V44.7488H184.329V62.3971H181.393V59.1122C180.818 60.1428 179.957 61.0016 178.808 61.6886C177.68 62.3542 176.361 62.6869 174.85 62.6869C173.297 62.6869 171.893 62.3005 170.638 61.5276C169.382 60.7546 168.393 59.6704 167.67 58.2749C166.946 56.8793 166.585 55.2905 166.585 53.5085ZM181.393 53.5407C181.393 52.2096 181.127 51.0502 180.595 50.0626C180.063 49.075 179.34 48.3235 178.425 47.8083C177.531 47.2715 176.542 47.0031 175.457 47.0031C174.372 47.0031 173.382 47.2608 172.489 47.776C171.595 48.2913 170.882 49.0428 170.351 50.0304C169.819 51.018 169.553 52.1774 169.553 53.5085C169.553 54.8611 169.819 56.042 170.351 57.0511C170.882 58.0387 171.595 58.8009 172.489 59.3376C173.382 59.8529 174.372 60.1106 175.457 60.1106C176.542 60.1106 177.531 59.8529 178.425 59.3376C179.34 58.8009 180.063 58.0387 180.595 57.0511C181.127 56.042 181.393 54.8719 181.393 53.5407Z" fill="black"/>
<path d="M192.141 38.5654V62.3971H189.237V38.5654H192.141Z" fill="black"/>
<path d="M199.995 38.5654V62.3971H197.091V38.5654H199.995Z" fill="black"/>
<path d="M203.859 53.5085C203.859 51.7051 204.221 50.127 204.945 48.7744C205.668 47.4003 206.657 46.3376 207.913 45.5861C209.189 44.8347 210.604 44.4589 212.157 44.4589C213.689 44.4589 215.019 44.7917 216.146 45.4573C217.274 46.1229 218.115 46.9602 218.668 47.9693V44.7488H221.604V62.3971H218.668V59.1122C218.093 60.1428 217.232 61.0016 216.083 61.6886C214.955 62.3542 213.636 62.6869 212.125 62.6869C210.572 62.6869 209.168 62.3005 207.913 61.5276C206.657 60.7546 205.668 59.6704 204.945 58.2749C204.221 56.8793 203.859 55.2905 203.859 53.5085ZM218.668 53.5407C218.668 52.2096 218.402 51.0502 217.87 50.0626C217.338 49.075 216.615 48.3235 215.7 47.8083C214.806 47.2715 213.817 47.0031 212.732 47.0031C211.647 47.0031 210.657 47.2608 209.764 47.776C208.87 48.2913 208.157 49.0428 207.625 50.0304C207.093 51.018 206.827 52.1774 206.827 53.5085C206.827 54.8611 207.093 56.042 207.625 57.0511C208.157 58.0387 208.87 58.8009 209.764 59.3376C210.657 59.8529 211.647 60.1106 212.732 60.1106C213.817 60.1106 214.806 59.8529 215.7 59.3376C216.615 58.8009 217.338 58.0387 217.87 57.0511C218.402 56.042 218.668 54.8719 218.668 53.5407Z" fill="black"/>
<path d="M102.046 30.7233C101.014 30.7233 100.083 30.4818 99.2533 29.9987C98.4235 29.5049 97.7746 28.8179 97.3065 27.9376C96.8384 27.0574 96.6044 26.0644 96.6044 24.9587C96.6044 23.8422 96.8384 22.8492 97.3065 21.9797C97.7746 21.0994 98.4235 20.4178 99.2533 19.9347C100.083 19.4409 101.014 19.194 102.046 19.194C103.078 19.194 104.009 19.4409 104.838 19.9347C105.668 20.4178 106.317 21.0994 106.785 21.9797C107.253 22.8492 107.487 23.8422 107.487 24.9587C107.487 26.0644 107.253 27.0574 106.785 27.9376C106.317 28.8179 105.668 29.5049 104.838 29.9987C104.009 30.4818 103.078 30.7233 102.046 30.7233ZM102.046 30.0792C102.929 30.0792 103.727 29.8699 104.439 29.4513C105.152 29.0326 105.711 28.4368 106.115 27.6639C106.53 26.891 106.737 25.9892 106.737 24.9587C106.737 23.9174 106.53 23.0103 106.115 22.2373C105.711 21.4644 105.152 20.8686 104.439 20.45C103.727 20.0313 102.929 19.822 102.046 19.822C101.163 19.822 100.365 20.0313 99.6522 20.45C98.9395 20.8686 98.3756 21.4644 97.9608 22.2373C97.5459 23.0103 97.3384 23.9174 97.3384 24.9587C97.3384 25.9892 97.5459 26.891 97.9608 27.6639C98.3756 28.4368 98.9395 29.0326 99.6522 29.4513C100.365 29.8699 101.163 30.0792 102.046 30.0792Z" fill="black"/>
<path d="M113.567 21.6738C114.599 21.6738 115.44 21.9958 116.089 22.6399C116.738 23.2733 117.062 24.2179 117.062 25.4739V30.5945H116.36V25.5222C116.36 24.481 116.099 23.6866 115.578 23.1391C115.057 22.5809 114.349 22.3017 113.456 22.3017C112.52 22.3017 111.77 22.6023 111.206 23.2035C110.653 23.8046 110.376 24.6957 110.376 25.8765V30.5945H109.658V21.8509H110.376V23.7027C110.621 23.0478 111.025 22.5487 111.589 22.2051C112.163 21.8509 112.823 21.6738 113.567 21.6738Z" fill="black"/>
<path d="M120.318 18.6787V30.5945H119.6V18.6787H120.318Z" fill="black"/>
<path d="M123.317 19.9025C123.147 19.9025 123.004 19.8488 122.887 19.7415C122.77 19.6234 122.711 19.4677 122.711 19.2745C122.711 19.092 122.77 18.9417 122.887 18.8236C123.004 18.7055 123.147 18.6465 123.317 18.6465C123.488 18.6465 123.631 18.7055 123.748 18.8236C123.865 18.9417 123.924 19.092 123.924 19.2745C123.924 19.4677 123.865 19.6234 123.748 19.7415C123.631 19.8488 123.488 19.9025 123.317 19.9025ZM123.668 21.8509V30.5945H122.95V21.8509H123.668Z" fill="black"/>
<path d="M130.21 21.6738C131.242 21.6738 132.083 21.9958 132.731 22.6399C133.38 23.2733 133.705 24.2179 133.705 25.4739V30.5945H133.003V25.5222C133.003 24.481 132.742 23.6866 132.221 23.1391C131.7 22.5809 130.992 22.3017 130.099 22.3017C129.162 22.3017 128.412 22.6023 127.849 23.2035C127.295 23.8046 127.019 24.6957 127.019 25.8765V30.5945H126.301V21.8509H127.019V23.7027C127.263 23.0478 127.668 22.5487 128.232 22.2051C128.806 21.8509 129.466 21.6738 130.21 21.6738Z" fill="black"/>
<path d="M144.046 25.635C144.046 26.0214 144.035 26.3113 144.014 26.5045H136.53C136.551 27.2882 136.721 27.9484 137.041 28.4851C137.36 29.0219 137.78 29.4244 138.301 29.6928C138.823 29.9612 139.392 30.0954 140.009 30.0954C140.86 30.0954 141.572 29.886 142.147 29.4674C142.721 29.038 143.083 28.4583 143.232 27.7283H143.982C143.812 28.6193 143.376 29.3439 142.674 29.9021C141.971 30.4496 141.083 30.7233 140.009 30.7233C139.2 30.7233 138.477 30.5409 137.838 30.1759C137.2 29.8109 136.7 29.2902 136.339 28.6139C135.977 27.9269 135.796 27.1271 135.796 26.2147C135.796 25.3022 135.972 24.5078 136.323 23.8315C136.684 23.1552 137.184 22.6399 137.823 22.2856C138.461 21.9207 139.19 21.7382 140.009 21.7382C140.838 21.7382 141.557 21.9207 142.163 22.2856C142.78 22.6399 143.248 23.1176 143.567 23.7188C143.886 24.3092 144.046 24.9479 144.046 25.635ZM143.328 25.9087C143.36 25.1358 143.221 24.481 142.913 23.9442C142.615 23.4075 142.205 23.0103 141.684 22.7526C141.163 22.4842 140.599 22.3501 139.993 22.3501C139.386 22.3501 138.823 22.4842 138.301 22.7526C137.791 23.0103 137.37 23.4075 137.041 23.9442C136.721 24.481 136.551 25.1358 136.53 25.9087H143.328Z" fill="black"/>
<defs>
<linearGradient id="paint0_linear_92_809" x1="52.0676" y1="-18.1771" x2="101.753" y2="63.8848" gradientUnits="userSpaceOnUse">
<stop stop-color="#18FFD9"/>
<stop offset="0.494" stop-color="#1792FF"/>
<stop offset="1" stop-color="#7C2DFB"/>
</linearGradient>
<linearGradient id="paint1_linear_92_809" x1="55.1951" y1="-20.0706" x2="104.881" y2="61.9914" gradientUnits="userSpaceOnUse">
<stop stop-color="#18FFD9"/>
<stop offset="0.494" stop-color="#1792FF"/>
<stop offset="1" stop-color="#7C2DFB"/>
</linearGradient>
<linearGradient id="paint2_linear_92_809" x1="54.3651" y1="-19.5679" x2="104.051" y2="62.4942" gradientUnits="userSpaceOnUse">
<stop stop-color="#18FFD9"/>
<stop offset="0.494" stop-color="#1792FF"/>
<stop offset="1" stop-color="#7C2DFB"/>
</linearGradient>
<linearGradient id="paint3_linear_92_809" x1="50.7633" y1="-17.3871" x2="100.449" y2="64.6749" gradientUnits="userSpaceOnUse">
<stop stop-color="#18FFD9"/>
<stop offset="0.494" stop-color="#1792FF"/>
<stop offset="1" stop-color="#7C2DFB"/>
</linearGradient>
<linearGradient id="paint4_linear_92_809" x1="49.2182" y1="-16.4516" x2="98.9036" y2="65.6107" gradientUnits="userSpaceOnUse">
<stop stop-color="#18FFD9"/>
<stop offset="0.494" stop-color="#1792FF"/>
<stop offset="1" stop-color="#7C2DFB"/>
</linearGradient>
<linearGradient id="paint5_linear_92_809" x1="43.1422" y1="-12.7734" x2="92.828" y2="69.2884" gradientUnits="userSpaceOnUse">
<stop stop-color="#18FFD9"/>
<stop offset="0.494" stop-color="#1792FF"/>
<stop offset="1" stop-color="#7C2DFB"/>
</linearGradient>
<linearGradient id="paint6_linear_92_809" x1="35.6997" y1="-8.26714" x2="85.3857" y2="73.7952" gradientUnits="userSpaceOnUse">
<stop stop-color="#18FFD9"/>
<stop offset="0.494" stop-color="#1792FF"/>
<stop offset="1" stop-color="#7C2DFB"/>
</linearGradient>
<linearGradient id="paint7_linear_92_809" x1="40.6366" y1="-11.2558" x2="90.3223" y2="70.8058" gradientUnits="userSpaceOnUse">
<stop stop-color="#18FFD9"/>
<stop offset="0.494" stop-color="#1792FF"/>
<stop offset="1" stop-color="#7C2DFB"/>
</linearGradient>
<linearGradient id="paint8_linear_92_809" x1="32.0193" y1="-6.03832" x2="81.7051" y2="76.0235" gradientUnits="userSpaceOnUse">
<stop stop-color="#18FFD9"/>
<stop offset="0.494" stop-color="#1792FF"/>
<stop offset="1" stop-color="#7C2DFB"/>
</linearGradient>
<linearGradient id="paint9_linear_92_809" x1="-8.55443" y1="18.5256" x2="41.1326" y2="100.589" gradientUnits="userSpaceOnUse">
<stop stop-color="#18FFD9"/>
<stop offset="0.494" stop-color="#1792FF"/>
<stop offset="1" stop-color="#7C2DFB"/>
</linearGradient>
<linearGradient id="paint10_linear_92_809" x1="-3.67511" y1="15.5729" x2="46.0108" y2="97.6348" gradientUnits="userSpaceOnUse">
<stop stop-color="#18FFD9"/>
<stop offset="0.494" stop-color="#1792FF"/>
<stop offset="1" stop-color="#7C2DFB"/>
</linearGradient>
<linearGradient id="paint11_linear_92_809" x1="3.23014" y1="11.3918" x2="52.9163" y2="93.454" gradientUnits="userSpaceOnUse">
<stop stop-color="#18FFD9"/>
<stop offset="0.494" stop-color="#1792FF"/>
<stop offset="1" stop-color="#7C2DFB"/>
</linearGradient>
<linearGradient id="paint12_linear_92_809" x1="8.11211" y1="8.43237" x2="57.7995" y2="90.4976" gradientUnits="userSpaceOnUse">
<stop stop-color="#18FFD9"/>
<stop offset="0.494" stop-color="#1792FF"/>
<stop offset="1" stop-color="#7C2DFB"/>
</linearGradient>
<linearGradient id="paint13_linear_92_809" x1="28.0721" y1="-3.6479" x2="77.7578" y2="78.4139" gradientUnits="userSpaceOnUse">
<stop stop-color="#18FFD9"/>
<stop offset="0.494" stop-color="#1792FF"/>
<stop offset="1" stop-color="#7C2DFB"/>
</linearGradient>
<linearGradient id="paint14_linear_92_809" x1="19.0664" y1="1.80399" x2="68.7522" y2="83.866" gradientUnits="userSpaceOnUse">
<stop stop-color="#18FFD9"/>
<stop offset="0.494" stop-color="#1792FF"/>
<stop offset="1" stop-color="#7C2DFB"/>
</linearGradient>
<linearGradient id="paint15_linear_92_809" x1="12.8256" y1="5.58151" x2="62.5121" y2="87.6445" gradientUnits="userSpaceOnUse">
<stop stop-color="#18FFD9"/>
<stop offset="0.494" stop-color="#1792FF"/>
<stop offset="1" stop-color="#7C2DFB"/>
</linearGradient>
<linearGradient id="paint16_linear_92_809" x1="5.92782" y1="9.75856" x2="55.6138" y2="91.8206" gradientUnits="userSpaceOnUse">
<stop stop-color="#18FFD9"/>
<stop offset="0.494" stop-color="#1792FF"/>
<stop offset="1" stop-color="#7C2DFB"/>
</linearGradient>
<linearGradient id="paint17_linear_92_809" x1="15.2501" y1="4.11441" x2="64.9361" y2="86.1767" gradientUnits="userSpaceOnUse">
<stop stop-color="#18FFD9"/>
<stop offset="0.494" stop-color="#1792FF"/>
<stop offset="1" stop-color="#7C2DFB"/>
</linearGradient>
<linearGradient id="paint18_linear_92_809" x1="6.1093" y1="9.64953" x2="55.795" y2="91.7114" gradientUnits="userSpaceOnUse">
<stop stop-color="#18FFD9"/>
<stop offset="0.494" stop-color="#1792FF"/>
<stop offset="1" stop-color="#7C2DFB"/>
</linearGradient>
<linearGradient id="paint19_linear_92_809" x1="46.6746" y1="-14.9114" x2="96.3602" y2="67.1501" gradientUnits="userSpaceOnUse">
<stop stop-color="#18FFD9"/>
<stop offset="0.494" stop-color="#1792FF"/>
<stop offset="1" stop-color="#7C2DFB"/>
</linearGradient>
<linearGradient id="paint20_linear_92_809" x1="38.7783" y1="-10.1307" x2="88.4642" y2="71.9314" gradientUnits="userSpaceOnUse">
<stop stop-color="#18FFD9"/>
<stop offset="0.494" stop-color="#1792FF"/>
<stop offset="1" stop-color="#7C2DFB"/>
</linearGradient>
<linearGradient id="paint21_linear_92_809" x1="44.1773" y1="-13.3999" x2="93.8633" y2="68.6625" gradientUnits="userSpaceOnUse">
<stop stop-color="#18FFD9"/>
<stop offset="0.494" stop-color="#1792FF"/>
<stop offset="1" stop-color="#7C2DFB"/>
</linearGradient>
<linearGradient id="paint22_linear_92_809" x1="44.4414" y1="-13.56" x2="94.1273" y2="68.502" gradientUnits="userSpaceOnUse">
<stop stop-color="#18FFD9"/>
<stop offset="0.494" stop-color="#1792FF"/>
<stop offset="1" stop-color="#7C2DFB"/>
</linearGradient>
<linearGradient id="paint23_linear_92_809" x1="33.5528" y1="-6.96653" x2="83.2389" y2="75.0961" gradientUnits="userSpaceOnUse">
<stop stop-color="#18FFD9"/>
<stop offset="0.494" stop-color="#1792FF"/>
<stop offset="1" stop-color="#7C2DFB"/>
</linearGradient>
<linearGradient id="paint24_linear_92_809" x1="32.4304" y1="-6.28749" x2="82.1162" y2="75.7745" gradientUnits="userSpaceOnUse">
<stop stop-color="#18FFD9"/>
<stop offset="0.494" stop-color="#1792FF"/>
<stop offset="1" stop-color="#7C2DFB"/>
</linearGradient>
<linearGradient id="paint25_linear_92_809" x1="30.498" y1="-5.1178" x2="80.184" y2="76.9445" gradientUnits="userSpaceOnUse">
<stop stop-color="#18FFD9"/>
<stop offset="0.494" stop-color="#1792FF"/>
<stop offset="1" stop-color="#7C2DFB"/>
</linearGradient>
<linearGradient id="paint26_linear_92_809" x1="23.0074" y1="-0.581935" x2="72.6937" y2="81.4807" gradientUnits="userSpaceOnUse">
<stop stop-color="#18FFD9"/>
<stop offset="0.494" stop-color="#1792FF"/>
<stop offset="1" stop-color="#7C2DFB"/>
</linearGradient>
<linearGradient id="paint27_linear_92_809" x1="18.0295" y1="2.43184" x2="67.7151" y2="84.4935" gradientUnits="userSpaceOnUse">
<stop stop-color="#18FFD9"/>
<stop offset="0.494" stop-color="#1792FF"/>
<stop offset="1" stop-color="#7C2DFB"/>
</linearGradient>
<linearGradient id="paint28_linear_92_809" x1="51.6239" y1="-17.9085" x2="101.309" y2="64.153" gradientUnits="userSpaceOnUse">
<stop stop-color="#18FFD9"/>
<stop offset="0.494" stop-color="#1792FF"/>
<stop offset="1" stop-color="#7C2DFB"/>
</linearGradient>
<linearGradient id="paint29_linear_92_809" x1="50.7297" y1="-17.3668" x2="100.415" y2="64.6952" gradientUnits="userSpaceOnUse">
<stop stop-color="#18FFD9"/>
<stop offset="0.494" stop-color="#1792FF"/>
<stop offset="1" stop-color="#7C2DFB"/>
</linearGradient>
<linearGradient id="paint30_linear_92_809" x1="37.978" y1="-9.64595" x2="87.6635" y2="72.4157" gradientUnits="userSpaceOnUse">
<stop stop-color="#18FFD9"/>
<stop offset="0.494" stop-color="#1792FF"/>
<stop offset="1" stop-color="#7C2DFB"/>
</linearGradient>
<linearGradient id="paint31_linear_92_809" x1="36.7083" y1="-8.8774" x2="86.3941" y2="73.1846" gradientUnits="userSpaceOnUse">
<stop stop-color="#18FFD9"/>
<stop offset="0.494" stop-color="#1792FF"/>
<stop offset="1" stop-color="#7C2DFB"/>
</linearGradient>
<linearGradient id="paint32_linear_92_809" x1="43.7735" y1="-13.1556" x2="93.4592" y2="68.9064" gradientUnits="userSpaceOnUse">
<stop stop-color="#18FFD9"/>
<stop offset="0.494" stop-color="#1792FF"/>
<stop offset="1" stop-color="#7C2DFB"/>
</linearGradient>
<linearGradient id="paint33_linear_92_809" x1="41.581" y1="-11.8277" x2="91.2668" y2="70.2344" gradientUnits="userSpaceOnUse">
<stop stop-color="#18FFD9"/>
<stop offset="0.494" stop-color="#1792FF"/>
<stop offset="1" stop-color="#7C2DFB"/>
</linearGradient>
<linearGradient id="paint34_linear_92_809" x1="22.751" y1="-0.426804" x2="72.4369" y2="81.6353" gradientUnits="userSpaceOnUse">
<stop stop-color="#18FFD9"/>
<stop offset="0.494" stop-color="#1792FF"/>
<stop offset="1" stop-color="#7C2DFB"/>
</linearGradient>
<linearGradient id="paint35_linear_92_809" x1="20.7536" y1="0.782087" x2="70.4394" y2="82.8439" gradientUnits="userSpaceOnUse">
<stop stop-color="#18FFD9"/>
<stop offset="0.494" stop-color="#1792FF"/>
<stop offset="1" stop-color="#7C2DFB"/>
</linearGradient>
<linearGradient id="paint36_linear_92_809" x1="20.1366" y1="1.15646" x2="69.8222" y2="83.2181" gradientUnits="userSpaceOnUse">
<stop stop-color="#18FFD9"/>
<stop offset="0.494" stop-color="#1792FF"/>
<stop offset="1" stop-color="#7C2DFB"/>
</linearGradient>
<linearGradient id="paint37_linear_92_809" x1="18.1348" y1="2.36813" x2="67.8204" y2="84.4299" gradientUnits="userSpaceOnUse">
<stop stop-color="#18FFD9"/>
<stop offset="0.494" stop-color="#1792FF"/>
<stop offset="1" stop-color="#7C2DFB"/>
</linearGradient>
<linearGradient id="paint38_linear_92_809" x1="7.71132" y1="8.6791" x2="57.3976" y2="90.7418" gradientUnits="userSpaceOnUse">
<stop stop-color="#18FFD9"/>
<stop offset="0.494" stop-color="#1792FF"/>
<stop offset="1" stop-color="#7C2DFB"/>
</linearGradient>
<linearGradient id="paint39_linear_92_809" x1="1.92211" y1="12.1845" x2="51.6079" y2="94.2464" gradientUnits="userSpaceOnUse">
<stop stop-color="#18FFD9"/>
<stop offset="0.494" stop-color="#1792FF"/>
<stop offset="1" stop-color="#7C2DFB"/>
</linearGradient>
<linearGradient id="paint40_linear_92_809" x1="2.58639" y1="11.7821" x2="52.2721" y2="93.844" gradientUnits="userSpaceOnUse">
<stop stop-color="#18FFD9"/>
<stop offset="0.494" stop-color="#1792FF"/>
<stop offset="1" stop-color="#7C2DFB"/>
</linearGradient>
<linearGradient id="paint41_linear_92_809" x1="0.413711" y1="13.0979" x2="50.0995" y2="95.1599" gradientUnits="userSpaceOnUse">
<stop stop-color="#18FFD9"/>
<stop offset="0.494" stop-color="#1792FF"/>
<stop offset="1" stop-color="#7C2DFB"/>
</linearGradient>
<linearGradient id="paint42_linear_92_809" x1="-8.875" y1="18.7218" x2="40.8108" y2="100.784" gradientUnits="userSpaceOnUse">
<stop stop-color="#18FFD9"/>
<stop offset="0.494" stop-color="#1792FF"/>
<stop offset="1" stop-color="#7C2DFB"/>
</linearGradient>
<linearGradient id="paint43_linear_92_809" x1="46.2742" y1="-14.6695" x2="95.9603" y2="67.3928" gradientUnits="userSpaceOnUse">
<stop stop-color="#18FFD9"/>
<stop offset="0.494" stop-color="#1792FF"/>
<stop offset="1" stop-color="#7C2DFB"/>
</linearGradient>
<linearGradient id="paint44_linear_92_809" x1="41.6797" y1="-11.8876" x2="91.3655" y2="70.1743" gradientUnits="userSpaceOnUse">
<stop stop-color="#18FFD9"/>
<stop offset="0.494" stop-color="#1792FF"/>
<stop offset="1" stop-color="#7C2DFB"/>
</linearGradient>
<linearGradient id="paint45_linear_92_809" x1="28.2992" y1="-3.78621" x2="77.9849" y2="78.2757" gradientUnits="userSpaceOnUse">
<stop stop-color="#18FFD9"/>
<stop offset="0.494" stop-color="#1792FF"/>
<stop offset="1" stop-color="#7C2DFB"/>
</linearGradient>
<linearGradient id="paint46_linear_92_809" x1="25.5751" y1="-2.13691" x2="75.2609" y2="79.9251" gradientUnits="userSpaceOnUse">
<stop stop-color="#18FFD9"/>
<stop offset="0.494" stop-color="#1792FF"/>
<stop offset="1" stop-color="#7C2DFB"/>
</linearGradient>
<linearGradient id="paint47_linear_92_809" x1="30.2841" y1="-4.98724" x2="79.9695" y2="77.0741" gradientUnits="userSpaceOnUse">
<stop stop-color="#18FFD9"/>
<stop offset="0.494" stop-color="#1792FF"/>
<stop offset="1" stop-color="#7C2DFB"/>
</linearGradient>
<linearGradient id="paint48_linear_92_809" x1="26.2626" y1="-2.55299" x2="75.9484" y2="79.5089" gradientUnits="userSpaceOnUse">
<stop stop-color="#18FFD9"/>
<stop offset="0.494" stop-color="#1792FF"/>
<stop offset="1" stop-color="#7C2DFB"/>
</linearGradient>
<linearGradient id="paint49_linear_92_809" x1="9.65339" y1="7.50322" x2="59.3393" y2="89.5653" gradientUnits="userSpaceOnUse">
<stop stop-color="#18FFD9"/>
<stop offset="0.494" stop-color="#1792FF"/>
<stop offset="1" stop-color="#7C2DFB"/>
</linearGradient>
<linearGradient id="paint50_linear_92_809" x1="7.80842" y1="8.62063" x2="57.4941" y2="90.6824" gradientUnits="userSpaceOnUse">
<stop stop-color="#18FFD9"/>
<stop offset="0.494" stop-color="#0060FE"/>
<stop offset="1" stop-color="#7C2DFB"/>
</linearGradient>
<linearGradient id="paint51_linear_92_809" x1="4.68702" y1="10.5101" x2="54.3729" y2="92.5721" gradientUnits="userSpaceOnUse">
<stop stop-color="#18FFD9"/>
<stop offset="0.494" stop-color="#1792FF"/>
<stop offset="1" stop-color="#7C2DFB"/>
</linearGradient>
<linearGradient id="paint52_linear_92_809" x1="3.56481" y1="11.19" x2="53.2507" y2="93.2521" gradientUnits="userSpaceOnUse">
<stop stop-color="#18FFD9"/>
<stop offset="0.494" stop-color="#1792FF"/>
<stop offset="1" stop-color="#7C2DFB"/>
</linearGradient>
<linearGradient id="paint53_linear_92_809" x1="-11.4561" y1="20.2844" x2="38.2296" y2="102.346" gradientUnits="userSpaceOnUse">
<stop stop-color="#18FFD9"/>
<stop offset="0.494" stop-color="#1792FF"/>
<stop offset="1" stop-color="#7C2DFB"/>
</linearGradient>
<linearGradient id="paint54_linear_92_809" x1="-12.5323" y1="20.9361" x2="37.1534" y2="102.998" gradientUnits="userSpaceOnUse">
<stop stop-color="#18FFD9"/>
<stop offset="0.494" stop-color="#1792FF"/>
<stop offset="1" stop-color="#7C2DFB"/>
</linearGradient>
<linearGradient id="paint55_linear_92_809" x1="-10.2013" y1="19.5244" x2="39.4844" y2="101.586" gradientUnits="userSpaceOnUse">
<stop stop-color="#18FFD9"/>
<stop offset="0.494" stop-color="#1792FF"/>
<stop offset="1" stop-color="#7C2DFB"/>
</linearGradient>
<linearGradient id="paint56_linear_92_809" x1="-9.84174" y1="19.307" x2="39.844" y2="101.369" gradientUnits="userSpaceOnUse">
<stop stop-color="#18FFD9"/>
<stop offset="0.494" stop-color="#1792FF"/>
<stop offset="1" stop-color="#7C2DFB"/>
</linearGradient>
<linearGradient id="paint57_linear_92_809" x1="-18.1649" y1="24.3462" x2="31.5207" y2="106.408" gradientUnits="userSpaceOnUse">
<stop stop-color="#18FFD9"/>
<stop offset="0.494" stop-color="#1792FF"/>
<stop offset="1" stop-color="#7C2DFB"/>
</linearGradient>
<linearGradient id="paint58_linear_92_809" x1="-17.5945" y1="24.0011" x2="32.0912" y2="106.063" gradientUnits="userSpaceOnUse">
<stop stop-color="#18FFD9"/>
<stop offset="0.494" stop-color="#1792FF"/>
<stop offset="1" stop-color="#7C2DFB"/>
</linearGradient>
<linearGradient id="paint59_linear_92_809" x1="26.0909" y1="-2.44891" x2="75.7766" y2="79.6131" gradientUnits="userSpaceOnUse">
<stop stop-color="#18FFD9"/>
<stop offset="0.494" stop-color="#1792FF"/>
<stop offset="1" stop-color="#7C2DFB"/>
</linearGradient>
<linearGradient id="paint60_linear_92_809" x1="18.4336" y1="2.18704" x2="68.1195" y2="84.2491" gradientUnits="userSpaceOnUse">
<stop stop-color="#18FFD9"/>
<stop offset="0.494" stop-color="#1792FF"/>
<stop offset="1" stop-color="#7C2DFB"/>
</linearGradient>
<linearGradient id="paint61_linear_92_809" x1="13.1494" y1="5.38675" x2="62.835" y2="87.4484" gradientUnits="userSpaceOnUse">
<stop stop-color="#18FFD9"/>
<stop offset="0.494" stop-color="#1792FF"/>
<stop offset="1" stop-color="#7C2DFB"/>
</linearGradient>
<linearGradient id="paint62_linear_92_809" x1="10.6449" y1="6.90327" x2="60.3306" y2="88.9652" gradientUnits="userSpaceOnUse">
<stop stop-color="#18FFD9"/>
<stop offset="0.494" stop-color="#1792FF"/>
<stop offset="1" stop-color="#7C2DFB"/>
</linearGradient>
<linearGradient id="paint63_linear_92_809" x1="10.5756" y1="6.94506" x2="60.2613" y2="89.0068" gradientUnits="userSpaceOnUse">
<stop stop-color="#18FFD9"/>
<stop offset="0.494" stop-color="#1792FF"/>
<stop offset="1" stop-color="#7C2DFB"/>
</linearGradient>
<linearGradient id="paint64_linear_92_809" x1="5.34165" y1="10.1139" x2="55.0273" y2="92.1756" gradientUnits="userSpaceOnUse">
<stop stop-color="#18FFD9"/>
<stop offset="0.494" stop-color="#1792FF"/>
<stop offset="1" stop-color="#7C2DFB"/>
</linearGradient>
<linearGradient id="paint65_linear_92_809" x1="1.10469" y1="12.6794" x2="50.7904" y2="94.7413" gradientUnits="userSpaceOnUse">
<stop stop-color="#18FFD9"/>
<stop offset="0.494" stop-color="#1792FF"/>
<stop offset="1" stop-color="#7C2DFB"/>
</linearGradient>
<linearGradient id="paint66_linear_92_809" x1="0.445974" y1="13.0782" x2="50.1316" y2="95.14" gradientUnits="userSpaceOnUse">
<stop stop-color="#18FFD9"/>
<stop offset="0.494" stop-color="#1792FF"/>
<stop offset="1" stop-color="#7C2DFB"/>
</linearGradient>
<linearGradient id="paint67_linear_92_809" x1="-3.99589" y1="15.7678" x2="45.6897" y2="97.8294" gradientUnits="userSpaceOnUse">
<stop stop-color="#18FFD9"/>
<stop offset="0.494" stop-color="#1792FF"/>
<stop offset="1" stop-color="#7C2DFB"/>
</linearGradient>
<linearGradient id="paint68_linear_92_809" x1="-3.78149" y1="15.6375" x2="45.9044" y2="97.6997" gradientUnits="userSpaceOnUse">
<stop stop-color="#18FFD9"/>
<stop offset="0.494" stop-color="#1792FF"/>
<stop offset="1" stop-color="#7C2DFB"/>
</linearGradient>
<linearGradient id="paint69_linear_92_809" x1="-15.7268" y1="22.8703" x2="33.9589" y2="104.932" gradientUnits="userSpaceOnUse">
<stop stop-color="#18FFD9"/>
<stop offset="0.494" stop-color="#1792FF"/>
<stop offset="1" stop-color="#7C2DFB"/>
</linearGradient>
<linearGradient id="paint70_linear_92_809" x1="-12.9328" y1="21.179" x2="36.7529" y2="103.241" gradientUnits="userSpaceOnUse">
<stop stop-color="#18FFD9"/>
<stop offset="0.494" stop-color="#1792FF"/>
<stop offset="1" stop-color="#7C2DFB"/>
</linearGradient>
<linearGradient id="paint71_linear_92_809" x1="-8.13598" y1="18.2742" x2="41.5501" y2="100.337" gradientUnits="userSpaceOnUse">
<stop stop-color="#18FFD9"/>
<stop offset="0.494" stop-color="#1792FF"/>
<stop offset="1" stop-color="#7C2DFB"/>
</linearGradient>
<linearGradient id="paint72_linear_92_809" x1="-4.41593" y1="16.0219" x2="45.2698" y2="98.0839" gradientUnits="userSpaceOnUse">
<stop stop-color="#18FFD9"/>
<stop offset="0.494" stop-color="#1792FF"/>
<stop offset="1" stop-color="#7C2DFB"/>
</linearGradient>
<linearGradient id="paint73_linear_92_809" x1="-11.619" y1="20.3834" x2="38.0669" y2="102.445" gradientUnits="userSpaceOnUse">
<stop stop-color="#18FFD9"/>
<stop offset="0.494" stop-color="#1792FF"/>
<stop offset="1" stop-color="#7C2DFB"/>
</linearGradient>
<linearGradient id="paint74_linear_92_809" x1="-4.67879" y1="16.1806" x2="45.007" y2="98.2426" gradientUnits="userSpaceOnUse">
<stop stop-color="#18FFD9"/>
<stop offset="0.494" stop-color="#1792FF"/>
<stop offset="1" stop-color="#7C2DFB"/>
</linearGradient>
</defs>
</svg>
