<svg width="64" height="64" viewBox="0 0 64 64" fill="none" xmlns="http://www.w3.org/2000/svg">
<path d="M11.3671 24.3873C11.3671 23.1968 11.8526 22.1125 12.6392 21.3294C13.4224 20.5428 14.5066 20.0574 15.6971 20.0574C16.8913 20.0574 17.9719 20.5428 18.7586 21.3294C19.5417 22.1125 20.0306 23.1967 20.0306 24.3873C20.0306 25.5424 20.0909 26.6232 20.1936 27.6472H22.4046C23.0779 27.6472 23.6873 27.3743 24.1303 26.9314C24.5731 26.4885 24.8495 25.8755 24.8495 25.2058V21.6838C24.8495 21.1664 25.2676 20.7448 25.7885 20.7448H29.3106C29.9802 20.7448 30.5932 20.4719 31.0362 20.0255C31.4791 19.5827 31.7555 18.9732 31.7555 18.3035C31.7555 17.6303 31.4791 17.0209 31.0362 16.5779C30.5934 16.1349 29.9804 15.8587 29.3106 15.8587H25.7885C25.2676 15.8587 24.8495 15.4405 24.8495 14.9233V11.3975C24.8495 10.7278 24.5731 10.1184 24.1303 9.67541C23.6873 9.23253 23.0779 8.95616 22.4046 8.95616H18.8826C18.3652 8.95616 17.9471 8.53453 17.9471 8.01716V4.49503C17.9471 3.82178 17.6707 3.21241 17.2279 2.76941C16.7849 2.32653 16.172 2.05016 15.5022 2.05016C14.8325 2.05016 14.2231 2.32653 13.7766 2.76941C13.3336 3.21228 13.0608 3.82178 13.0608 4.49503V8.01716C13.0608 8.53453 12.6391 8.95616 12.1217 8.95616H8.59975C7.93 8.95616 7.317 9.23253 6.87413 9.67541C6.43125 10.1184 6.15487 10.7278 6.15487 11.3975V25.2058C6.15487 25.8755 6.43125 26.4885 6.87413 26.9314C7.317 27.3743 7.93 27.6472 8.59975 27.6472H11.3671V24.3873ZM52.633 34.5778C52.633 35.0952 52.2149 35.5132 51.6976 35.5132C51.1804 35.5132 50.7586 35.095 50.7586 34.5778V28.586V24.3873C50.7586 23.714 50.4823 23.0975 50.0358 22.6547C49.5929 22.2082 48.9762 21.9318 48.3031 21.9318C47.6297 21.9318 47.0132 22.2082 46.5704 22.6547C46.124 23.0977 45.8476 23.7142 45.8476 24.3873C45.8476 27.3318 45.4507 29.9113 44.9405 32.7955C44.572 34.8862 44.2282 36.8455 44.2282 38.9042C44.2282 41.4448 44.9441 46.0545 47.3464 47.6703C47.6086 47.8439 47.7609 48.1344 47.7609 48.4461L47.7644 50.9265H57.2889C57.8063 48.8926 58.5325 47.2415 59.2733 45.5549C60.6729 42.373 62.1256 39.0672 62.1256 32.7529C62.1256 29.0857 61.6189 25.6734 60.7436 22.7998C60.198 21.0033 59.5106 19.423 58.7205 18.1297V25.2057C58.7205 26.3927 58.2349 27.4734 57.4519 28.2565C56.6687 29.0395 55.5916 29.525 54.4011 29.525H52.633V34.5778ZM52.633 24.3873V27.6472H54.4011C55.0744 27.6472 55.6839 27.3743 56.1268 26.9314C56.5698 26.4885 56.8461 25.8755 56.8461 25.2058V11.3975C56.8461 10.7278 56.5698 10.1184 56.1268 9.67541C55.6839 9.23253 55.0744 8.95616 54.4011 8.95616H50.8791C50.3617 8.95616 49.94 8.53453 49.94 8.01716V4.49503C49.94 3.82178 49.6673 3.21241 49.2243 2.76941C48.7814 2.32653 48.1683 2.05016 47.4985 2.05016C46.8289 2.05016 46.2159 2.32653 45.7729 2.76941C45.33 3.21228 45.0536 3.82178 45.0536 4.49503V8.01716C45.0536 8.53453 44.6355 8.95616 44.1183 8.95616H40.5962C39.9229 8.95616 39.3135 9.23253 38.8706 9.67541C38.4276 10.1184 38.1512 10.7278 38.1512 11.3975V13.9842H40.7379C41.9284 13.9842 43.0056 14.4695 43.7886 15.2527C44.5718 16.0358 45.0571 17.1129 45.0571 18.3034C45.0571 19.4904 44.5716 20.5712 43.7886 21.3542C43.0055 22.1337 41.9284 22.6192 40.7379 22.6192H38.1512V25.2058C38.1512 25.8755 38.4276 26.4885 38.8706 26.9314C39.3135 27.3743 39.9229 27.6472 40.5962 27.6472H43.81C43.9093 26.6232 43.9731 25.5424 43.9731 24.3873C43.9731 23.1968 44.4585 22.1125 45.2451 21.3294C46.0283 20.5428 47.1124 20.0574 48.3031 20.0574C49.4972 20.0574 50.5779 20.5428 51.3645 21.3294C52.1475 22.1124 52.633 23.1967 52.633 24.3873ZM11.3671 29.525H8.59975C7.40912 29.525 6.332 29.0395 5.54887 28.2565C4.76575 27.4734 4.28038 26.3927 4.28038 25.2057V19.9368C3.77012 21.0458 3.32725 22.2965 2.96575 23.6608C2.26412 26.3218 1.87437 29.4115 1.87437 32.7529C1.87437 39.0672 3.32725 42.373 4.72675 45.5549C5.46725 47.2415 6.19362 48.8926 6.711 50.9265H16.2355V48.4463C16.2355 48.1451 16.3843 47.851 16.6536 47.6704C19.0595 46.0546 19.7754 41.4448 19.7754 38.9043C19.7754 36.8457 19.4281 34.8862 19.0596 32.7957C18.5529 29.9114 18.156 27.3319 18.156 24.3874C18.156 23.7142 17.8796 23.0977 17.4331 22.6548C16.9866 22.2083 16.3736 21.9319 15.6969 21.9319C15.0236 21.9319 14.4106 22.2083 13.9642 22.6548C13.5177 23.0978 13.2413 23.7143 13.2413 24.3874V28.5862V34.5779C13.2413 35.0953 12.8231 35.5133 12.3059 35.5133C11.785 35.5133 11.3669 35.0951 11.3669 34.5779V29.525H11.3671ZM50.305 61.9463C50.8224 61.9463 51.244 62.368 51.244 62.8853C51.244 63.4025 50.8224 63.8243 50.305 63.8243H43.5477C43.0304 63.8243 42.6087 63.4025 42.6087 62.8853V55.1431C42.6087 53.9844 43.0836 52.9285 43.849 52.1633C44.4017 51.6105 45.1032 51.2101 45.8899 51.0329V48.9105C43.2217 46.703 42.3536 42.1144 42.3536 38.9042C42.3536 36.6897 42.7115 34.6487 43.0942 32.4767C43.2642 31.527 43.4344 30.5492 43.5831 29.5252H40.5962C39.4056 29.5252 38.3285 29.0397 37.5455 28.2567C36.7623 27.4735 36.277 26.3928 36.277 25.2058V21.6838C36.277 21.1664 36.6951 20.7448 37.216 20.7448H40.7381C41.4077 20.7448 42.0209 20.4719 42.4637 20.0255C42.9066 19.5827 43.183 18.9732 43.183 18.3035C43.183 17.6303 42.9066 17.0209 42.4637 16.5779C42.0209 16.1349 41.4079 15.8587 40.7381 15.8587H37.216C36.6951 15.8587 36.277 15.4405 36.277 14.9233V11.3975C36.277 10.2105 36.7624 9.12978 37.5455 8.35028C38.3285 7.56728 39.4056 7.08178 40.5962 7.08178H43.1794V4.49503C43.1794 3.30453 43.6647 2.22728 44.4478 1.44428C45.2309 0.661156 46.3115 0.175781 47.4985 0.175781C48.6856 0.175781 49.7664 0.661156 50.5494 1.44428C51.3325 2.22741 51.8179 3.30453 51.8179 4.49503V7.08166H54.4009C55.5914 7.08166 56.6686 7.56703 57.4516 8.35016C58.2348 9.12966 58.7202 10.2104 58.7202 11.3974V15.0258C60.29 16.7159 61.6081 19.2245 62.5329 22.2577C63.4614 25.3155 64 28.9155 64 32.7529C64 39.4534 62.4658 42.947 60.9881 46.3097C60.3185 47.8333 59.6594 49.325 59.1845 51.086C59.8826 51.288 60.5098 51.6637 61.0094 52.1633C61.7747 52.9285 62.2496 53.9845 62.2496 55.1431V62.8853C62.2496 63.4025 61.8279 63.8243 61.3106 63.8243H54.5532C54.036 63.8243 53.6143 63.4025 53.6143 62.8853C53.6143 62.3679 54.036 61.9463 54.5532 61.9463H60.375V55.1431C60.375 54.5018 60.1092 53.9137 59.6841 53.4884C59.259 53.0667 58.6743 52.8009 58.0329 52.8009H46.8288C46.1839 52.8009 45.5993 53.0632 45.1741 53.4884C44.7489 53.9135 44.4866 54.5018 44.4866 55.1431V61.9463H50.305ZM13.6951 63.8243C13.1777 63.8243 12.7596 63.4025 12.7596 62.8853C12.7596 62.3679 13.1777 61.9463 13.6951 61.9463H19.5169V55.1431C19.5169 54.5018 19.2511 53.9137 18.8259 53.4884C18.4006 53.0632 17.816 52.8009 17.1746 52.8009H5.97062C5.347 52.8009 4.75525 53.0489 4.31588 53.4884C3.89062 53.9135 3.62838 54.5018 3.62838 55.1431V61.9463H9.45012C9.9675 61.9463 10.3856 62.368 10.3856 62.8853C10.3856 63.4025 9.9675 63.8243 9.45012 63.8243H2.6895C2.17213 63.8243 1.754 63.4025 1.754 62.8853V55.1431C1.754 53.9844 2.22875 52.9285 2.99075 52.1633C3.49388 51.6637 4.1175 51.2881 4.8155 51.086C4.34075 49.325 3.68525 47.8333 3.0155 46.3097C1.53425 42.9471 0 39.4534 0 32.7529C0 29.2557 0.411125 26.0065 1.15863 23.1825C1.89213 20.4045 2.95862 18.0305 4.28038 16.2448V11.3975C4.28038 10.2105 4.76575 9.12978 5.54887 8.35028C6.332 7.56728 7.40912 7.08178 8.59975 7.08178H11.1864V4.49503C11.1864 3.30453 11.6718 2.22728 12.4514 1.44428C13.2344 0.661156 14.3152 0.175781 15.5022 0.175781C16.6927 0.175781 17.77 0.661156 18.553 1.44428C19.3361 2.22741 19.8215 3.30453 19.8215 4.49503V7.08166H22.4046C23.5951 7.08166 24.676 7.56703 25.4555 8.35016C26.2386 9.12966 26.724 10.2104 26.724 11.3974V13.984H29.3107C30.4977 13.984 31.5785 14.4694 32.3615 15.2525C33.1446 16.0357 33.6299 17.1128 33.6299 18.3033C33.6299 19.4903 33.1445 20.571 32.3615 21.354C31.5784 22.1335 30.4976 22.619 29.3107 22.619H26.724V25.2057C26.724 26.3927 26.2386 27.4734 25.4555 28.2565C24.676 29.0395 23.5952 29.525 22.4046 29.525H20.4204C20.5656 30.549 20.7393 31.527 20.9058 32.4765C21.2885 34.6485 21.6499 36.6895 21.6499 38.904C21.6499 42.1143 20.7781 46.7029 18.11 48.9104V51.0328C18.8966 51.2099 19.6017 51.6103 20.1545 52.1631C20.9162 52.9284 21.3911 53.9844 21.3911 55.143V62.8851C21.3911 63.4024 20.973 63.8241 20.4557 63.8241H13.6951V63.8243Z" fill="black"/>
</svg>
