<svg width="64" height="58" viewBox="0 0 64 58" fill="none" xmlns="http://www.w3.org/2000/svg">
<path d="M60.0984 0.313599H48.0382C47.5205 0.313599 47.1007 0.733348 47.1007 1.2511C47.1007 1.76885 47.5205 2.1886 48.0382 2.1886H60.0984C61.2159 2.1886 62.125 3.09772 62.125 4.21522V39.837H1.875V4.21522C1.875 3.09772 2.78412 2.1886 3.90162 2.1886H43.6631C44.1809 2.1886 44.6006 1.76885 44.6006 1.2511C44.6006 0.733348 44.1809 0.313599 43.6631 0.313599H3.90162C1.75025 0.313599 0 2.06385 0 4.21522V42.8103C0 44.9617 1.75025 46.712 3.90162 46.712H12.8767C13.3945 46.712 13.8142 46.2922 13.8142 45.7745C13.8142 45.2567 13.3945 44.837 12.8767 44.837H3.90162C2.78412 44.837 1.875 43.9278 1.875 42.8103V41.712H62.125V42.8103C62.125 43.9278 61.2159 44.837 60.0984 44.837H17.2105C16.6928 44.837 16.273 45.2567 16.273 45.7745C16.273 46.2922 16.6928 46.712 17.2105 46.712H23.111L22.1854 52.0613H20.4746C18.9237 52.0613 17.6621 53.323 17.6621 54.8738C17.6621 56.4247 18.9237 57.6863 20.4746 57.6863H43.5254C45.0763 57.6863 46.3379 56.4247 46.3379 54.8738C46.3379 53.323 45.0763 52.0613 43.5254 52.0613H41.8146L40.889 46.712H60.0983C62.2496 46.712 63.9999 44.9617 63.9999 42.8103V4.21522C64 2.06385 62.2497 0.313599 60.0984 0.313599ZM39.9118 52.0613H37.3595C36.8418 52.0613 36.422 52.4811 36.422 52.9988C36.422 53.5166 36.8418 53.9363 37.3595 53.9363H43.5254C44.0424 53.9363 44.4629 54.3568 44.4629 54.8738C44.4629 55.3908 44.0424 55.8113 43.5254 55.8113H20.4746C19.9576 55.8113 19.5371 55.3908 19.5371 54.8738C19.5371 54.3568 19.9576 53.9363 20.4746 53.9363H32.983C33.5008 53.9363 33.9205 53.5166 33.9205 52.9988C33.9205 52.4811 33.5008 52.0613 32.983 52.0613H24.0882L25.0139 46.712H38.9863L39.9118 52.0613Z" fill="black"/>
<path d="M50.7149 24.0345C50.3621 24.0345 50.0392 24.2325 49.8792 24.5469L45.455 33.2425L41.7215 25.9044C41.5615 25.59 41.2386 25.392 40.8859 25.392C40.5331 25.392 40.2102 25.59 40.0502 25.9044L38.0264 29.8823H34.795C34.2772 29.8823 33.8575 30.302 33.8575 30.8198C33.8575 31.3375 34.2772 31.7573 34.795 31.7573H38.6012C38.954 31.7573 39.2769 31.5593 39.4369 31.2449L40.8859 28.397L44.6194 35.7352C44.7794 36.0495 45.1022 36.2475 45.455 36.2475C45.8077 36.2475 46.1306 36.0495 46.2906 35.7352L50.7149 27.0395L52.8545 31.245C53.0145 31.5594 53.3374 31.7574 53.6901 31.7574H57.4964C58.0141 31.7574 58.4339 31.3377 58.4339 30.8199C58.4339 30.3022 58.0141 29.8824 57.4964 29.8824H54.265L51.5505 24.547C51.3905 24.2325 51.0676 24.0345 50.7149 24.0345Z" fill="black"/>
<path d="M34.7953 21.2573H39.6602C40.178 21.2573 40.5977 20.8376 40.5977 20.3198V10.4506C40.5977 9.93281 40.178 9.51306 39.6602 9.51306H34.7953C34.2776 9.51306 33.8578 9.93281 33.8578 10.4506V20.3198C33.8578 20.8376 34.2776 21.2573 34.7953 21.2573ZM35.7328 11.3881H38.7227V19.3823H35.7328V11.3881Z" fill="black"/>
<path d="M48.6114 12.1949H43.7465C43.2288 12.1949 42.809 12.6147 42.809 13.1324V20.3198C42.809 20.8376 43.2288 21.2573 43.7465 21.2573H48.6114C49.1291 21.2573 49.5489 20.8376 49.5489 20.3198V13.1324C49.5489 12.6147 49.1291 12.1949 48.6114 12.1949ZM47.6739 19.3823H44.684V14.0699H47.6739V19.3823Z" fill="black"/>
<path d="M57.4963 21.2573C58.0141 21.2573 58.4338 20.8376 58.4338 20.3198V7.9762C58.4338 7.45845 58.0141 7.0387 57.4963 7.0387H52.6315C52.1137 7.0387 51.694 7.45845 51.694 7.9762V20.3198C51.694 20.8376 52.1137 21.2573 52.6315 21.2573H57.4963ZM53.569 8.9137H56.5588V19.3823H53.569V8.9137Z" fill="black"/>
<path d="M27.7372 17.6439H6.48724C5.96949 17.6439 5.54974 18.0637 5.54974 18.5814C5.54974 19.0992 5.96949 19.5189 6.48724 19.5189H27.7372C28.255 19.5189 28.6747 19.0992 28.6747 18.5814C28.6747 18.0637 28.255 17.6439 27.7372 17.6439Z" fill="black"/>
<path d="M6.48724 24.4991H10.29C10.8077 24.4991 11.2275 24.0794 11.2275 23.5616C11.2275 23.0439 10.8077 22.6241 10.29 22.6241H6.48724C5.96949 22.6241 5.54974 23.0439 5.54974 23.5616C5.54974 24.0794 5.96949 24.4991 6.48724 24.4991Z" fill="black"/>
<path d="M27.7373 22.6241H14.5856C14.0679 22.6241 13.6481 23.0439 13.6481 23.5616C13.6481 24.0794 14.0679 24.4991 14.5856 24.4991H27.7373C28.255 24.4991 28.6748 24.0794 28.6748 23.5616C28.6748 23.0439 28.255 22.6241 27.7373 22.6241Z" fill="black"/>
<path d="M27.7372 7.0387H6.48724C5.96949 7.0387 5.54974 7.45845 5.54974 7.9762C5.54974 8.49395 5.96949 8.9137 6.48724 8.9137H27.7372C28.255 8.9137 28.6747 8.49395 28.6747 7.9762C28.6747 7.45845 28.255 7.0387 27.7372 7.0387Z" fill="black"/>
<path d="M6.48724 13.8939H19.665C20.1827 13.8939 20.6025 13.4742 20.6025 12.9564C20.6025 12.4387 20.1827 12.0189 19.665 12.0189H6.48724C5.96949 12.0189 5.54974 12.4387 5.54974 12.9564C5.54974 13.4742 5.96949 13.8939 6.48724 13.8939Z" fill="black"/>
<path d="M27.7373 12.0189H23.9606C23.4429 12.0189 23.0231 12.4387 23.0231 12.9564C23.0231 13.4742 23.4429 13.8939 23.9606 13.8939H27.7373C28.255 13.8939 28.6748 13.4742 28.6748 12.9564C28.6748 12.4387 28.255 12.0189 27.7373 12.0189Z" fill="black"/>
<path d="M28.6747 28.4813C28.6747 27.9636 28.255 27.5438 27.7372 27.5438H6.48724C5.96949 27.5438 5.54974 27.9636 5.54974 28.4813C5.54974 28.9991 5.96949 29.4188 6.48724 29.4188H27.7372C28.255 29.4188 28.6747 28.9991 28.6747 28.4813Z" fill="black"/>
<path d="M6.48724 32.4976C5.96949 32.4976 5.54974 32.9173 5.54974 33.4351C5.54974 33.9528 5.96949 34.3726 6.48724 34.3726H16.4872C17.005 34.3726 17.4247 33.9528 17.4247 33.4351C17.4247 32.9173 17.005 32.4976 16.4872 32.4976H6.48724Z" fill="black"/>
</svg>
