<svg width="64" height="64" viewBox="0 0 64 64" fill="none" xmlns="http://www.w3.org/2000/svg">
<path d="M59.0947 15.8135H56.9961V14.4556C58.5688 13.4141 59.6084 11.6294 59.6084 9.60596V3.97803C59.6084 2.06055 58.0483 0.500488 56.1309 0.500488H51.459C49.541 0.500488 47.9814 2.06055 47.9814 3.97803V9.60596C47.9814 11.5791 48.9697 13.3242 50.4766 14.3755V15.8135H42.8486V4.25391C42.8486 2.18408 41.1646 0.5 39.0947 0.5H9.73779C9.2207 0.5 8.80176 0.919434 8.80176 1.43652C8.80176 1.95361 9.2207 2.37256 9.73779 2.37256H39.0947C40.1318 2.37256 40.9761 3.2168 40.9761 4.25391V15.8135H32.4897C32.7393 15.4092 32.8862 14.9351 32.8862 14.4263C32.8862 13.9365 32.7505 13.4795 32.5186 13.0854L35.8735 8.9248C36.1392 9.01416 36.4219 9.06445 36.7173 9.06445C38.1792 9.06445 39.3687 7.875 39.3687 6.41309C39.3687 4.95068 38.1792 3.76123 36.7173 3.76123C35.2549 3.76123 34.0654 4.95068 34.0654 6.41309C34.0654 6.89648 34.1973 7.34814 34.4243 7.73926L31.062 11.9082C30.8013 11.8223 30.5234 11.7744 30.2344 11.7744C29.8706 11.7744 29.5234 11.8481 29.2075 11.9814L27.4199 10.0933C27.5898 9.74365 27.688 9.35303 27.688 8.93896C27.688 7.47656 26.498 6.28711 25.0361 6.28711C23.5742 6.28711 22.3843 7.47656 22.3843 8.93896C22.3843 9.42236 22.5166 9.87451 22.7437 10.2651L20.5518 12.9512C20.2866 12.8618 20.0039 12.8115 19.7095 12.8115C19.0439 12.8115 18.4365 13.0596 17.9702 13.4663L15.5073 12.1436C15.522 12.0293 15.5327 11.9141 15.5327 11.7959C15.5327 10.3335 14.3428 9.14404 12.8809 9.14404C11.4189 9.14404 10.229 10.3335 10.229 11.7959C10.229 12.1533 10.3013 12.4937 10.4297 12.8052L7.76611 15.2969C7.4126 15.1221 7.01611 15.021 6.5957 15.021C5.1333 15.021 3.94385 16.2104 3.94385 17.6729C3.94385 19.1348 5.1333 20.3242 6.5957 20.3242C8.05762 20.3242 9.24707 19.1348 9.24707 17.6729C9.24707 17.3154 9.17529 16.9751 9.04639 16.6636L11.7104 14.1714C12.064 14.3467 12.4604 14.4473 12.8809 14.4473C13.5464 14.4473 14.1538 14.1992 14.6201 13.793L17.083 15.1157C17.0679 15.2295 17.0576 15.3452 17.0576 15.4634C17.0576 16.9253 18.2471 18.1152 19.7095 18.1152C21.1714 18.1152 22.3608 16.9253 22.3608 15.4634C22.3608 14.9795 22.2285 14.5273 22.0015 14.1362L24.1929 11.4507C24.458 11.54 24.7412 11.5908 25.0356 11.5908C25.3994 11.5908 25.7466 11.5166 26.0625 11.3838L27.8506 13.2725C27.6807 13.6216 27.5825 14.0122 27.5825 14.4263C27.5825 15.4814 28.2036 16.3921 29.0977 16.8188V19.1445C29.0977 20.9448 30.563 22.4092 32.3638 22.4092H46.6973V35.0024C44.8398 35.6543 43.5439 37.4385 43.5439 39.4473V44.4272C43.5439 46.5259 44.5796 48.4414 46.2803 49.5566V51.1455H45.5801C43.1929 51.1455 41.1001 52.4272 39.9512 54.3384C38.8027 52.4272 36.71 51.1455 34.3228 51.1455H33.6226V49.5503C35.3232 48.4116 36.3589 46.4976 36.3589 44.4277V39.4473C36.3589 38.3828 36.0034 37.4004 35.4058 36.6108H39.0942C41.1646 36.6108 42.8481 34.9268 42.8481 32.8569V26.1685C42.8481 25.6514 42.4292 25.2324 41.9121 25.2324C41.395 25.2324 40.9756 25.6514 40.9756 26.1685V32.8569C40.9756 33.894 40.1318 34.7383 39.0942 34.7383H31.6538C31.6523 34.7383 31.6504 34.7383 31.6489 34.7383H28.7437C28.7422 34.7383 28.7402 34.7383 28.7388 34.7383H12.1479C12.146 34.7383 12.1445 34.7383 12.1431 34.7383H9.2373C9.23584 34.7383 9.23438 34.7383 9.23242 34.7383H3.75391C2.7168 34.7383 1.87256 33.894 1.87256 32.8569V4.25391C1.87256 3.2168 2.7168 2.37256 3.75391 2.37256H5.7417C6.25879 2.37256 6.67822 1.95361 6.67822 1.43652C6.67822 0.919434 6.25879 0.5 5.7417 0.5H3.75391C1.68408 0.5 0 2.18408 0 4.25391V32.8564C0 34.9268 1.68408 36.6108 3.75391 36.6108H5.48096C4.8833 37.4004 4.52783 38.3833 4.52783 39.4478V40.522C4.52783 40.5283 4.52832 40.5347 4.52832 40.541V44.4272C4.52832 46.4971 5.56396 48.4116 7.26465 49.5503V51.145H6.56445C2.94482 51.145 0 54.0898 0 57.7095V61.2749C0 62.5493 1.03711 63.5859 2.31201 63.5859H19.0679C19.5835 63.5859 20.0586 63.4146 20.4434 63.1284C20.8281 63.4146 21.3032 63.5859 21.8184 63.5859H38.5752C39.0913 63.5859 39.5664 63.4141 39.9517 63.127C40.3364 63.4141 40.812 63.5859 41.3276 63.5859H58.085C59.3589 63.5859 60.3955 62.5493 60.3955 61.2749V57.7095C60.3955 56.2886 59.9316 54.9043 59.0835 53.7729V43.6973C59.0835 43.1802 58.6646 42.7612 58.147 42.7612C57.6299 42.7612 57.2109 43.1802 57.2109 43.6973V52.0811C56.2026 51.4751 55.0391 51.145 53.8325 51.145H53.1323V49.5479C53.1729 49.521 53.2139 49.4951 53.2534 49.4673C54.8911 48.3125 55.8687 46.4282 55.8687 44.4272V40.5269C55.8687 40.5249 55.8687 40.5234 55.8687 40.522V39.4473C55.8687 38.3745 55.5073 37.3848 54.9009 36.5918H57.2109V39.3276C57.2109 39.8447 57.6299 40.2642 58.1475 40.2642C58.6646 40.2642 59.0835 39.8452 59.0835 39.3276V36.5918H59.2109C61.8516 36.5918 64 34.4434 64 31.8027V20.7188C64 18.0142 61.7998 15.8135 59.0947 15.8135ZM49.854 3.97803C49.854 3.09277 50.5742 2.37305 51.459 2.37305H56.1313C57.0161 2.37305 57.7363 3.09326 57.7363 3.97803V5.44873C57.2559 5.19775 56.7095 5.05566 56.1313 5.05566H53.3257V4.98486C53.3257 4.46777 52.9067 4.04883 52.3892 4.04883C51.8721 4.04883 51.4531 4.46777 51.4531 4.98486V5.05566C50.877 5.05664 50.333 5.19873 49.854 5.44873V3.97803ZM49.854 8.5332C49.854 7.64844 50.5742 6.92822 51.459 6.92822H56.1313C57.0161 6.92822 57.7363 7.64844 57.7363 8.5332V9.60596C57.7363 11.7793 55.9683 13.5474 53.7949 13.5474C51.6221 13.5474 49.854 11.7793 49.854 9.60596V8.5332ZM53.7949 15.4199C54.252 15.4199 54.6963 15.3652 55.1235 15.2646V16.7021C55.123 16.7139 55.1226 16.7256 55.1226 16.7368C55.1118 17.4897 54.4902 18.1021 53.7363 18.1021C52.9824 18.1021 52.3608 17.4897 52.3506 16.7373C52.3506 16.7256 52.3501 16.7139 52.3496 16.7021V15.2378C52.8115 15.3564 53.2959 15.4199 53.7949 15.4199ZM36.7168 5.63379C37.1465 5.63379 37.4961 5.9834 37.4961 6.41309C37.4961 6.84277 37.1465 7.19189 36.7168 7.19189C36.5312 7.19189 36.3608 7.12646 36.2266 7.01758C36.2231 7.01465 36.2202 7.01123 36.2163 7.0083C36.2153 7.00781 36.2139 7.00684 36.2129 7.00586C36.0449 6.86279 35.938 6.65039 35.938 6.41309C35.938 5.9834 36.2876 5.63379 36.7168 5.63379ZM30.7163 13.8149L30.7222 13.8208C30.7251 13.8232 30.728 13.8242 30.731 13.8267C30.9033 13.9697 31.0132 14.1851 31.0132 14.4263C31.0132 14.856 30.6636 15.2051 30.2339 15.2051C29.8047 15.2051 29.4551 14.856 29.4551 14.4263C29.4551 13.9966 29.8047 13.647 30.2339 13.647C30.416 13.647 30.5835 13.7104 30.7163 13.8149ZM6.59521 18.4517C6.16602 18.4517 5.81641 18.1021 5.81641 17.6724C5.81641 17.2427 6.16553 16.8936 6.59521 16.8936C7.0249 16.8936 7.37451 17.2427 7.37451 17.6724C7.37451 18.1021 7.0249 18.4517 6.59521 18.4517ZM12.8809 12.5747C12.4512 12.5747 12.1016 12.2251 12.1016 11.7954C12.1016 11.3662 12.4512 11.0166 12.8809 11.0166C13.3101 11.0166 13.6597 11.3662 13.6597 11.7954C13.6597 12.2251 13.3101 12.5747 12.8809 12.5747ZM19.7095 16.2422C19.2798 16.2422 18.9302 15.8926 18.9302 15.4629C18.9302 15.0337 19.2798 14.6841 19.7095 14.6841C20.1387 14.6841 20.4883 15.0337 20.4883 15.4629C20.4883 15.8926 20.1387 16.2422 19.7095 16.2422ZM24.2568 8.93848C24.2568 8.50879 24.6064 8.15967 25.0361 8.15967C25.4658 8.15967 25.8149 8.50879 25.8149 8.93848C25.8149 9.36816 25.4658 9.71777 25.0361 9.71777C24.6064 9.71777 24.2568 9.36816 24.2568 8.93848ZM45.4165 39.4468C45.4165 38.1182 46.3569 36.9521 47.6562 36.6738C47.8486 36.6318 48.0493 36.6104 48.2529 36.6104H51.1582C52.7231 36.6104 53.9961 37.8828 53.9961 39.4468V40.5269C53.9932 42.8896 52.0703 44.8115 49.7065 44.8115C47.3408 44.8115 45.4165 42.8872 45.4165 40.522V39.4468ZM26.0703 51.145C23.6846 51.145 21.5928 52.4253 20.4434 54.335C19.2944 52.4253 17.2017 51.145 14.8154 51.145H14.1162V49.5498C15.8174 48.4111 16.853 46.4971 16.853 44.4272V39.4468C16.853 38.3828 16.4976 37.3999 15.8999 36.6104H24.9873C24.6685 37.0317 24.4185 37.5078 24.2549 38.0225C24.1118 38.4722 24.0342 38.9507 24.0342 39.4473V40.522V40.5269V44.4272C24.0342 46.4971 25.0698 48.4116 26.771 49.5503V51.145H26.0703ZM9.1377 49.0278C9.1377 49.0225 9.13721 49.0171 9.13721 49.0117C9.13672 48.98 9.13525 48.9526 9.13281 48.9292C9.10205 48.6318 8.93066 48.3545 8.64844 48.2012C7.4248 47.5366 6.61133 46.3315 6.43701 44.9751C7.54395 46.0327 9.04199 46.6846 10.6904 46.6846C12.3394 46.6846 13.8374 46.0322 14.9443 44.9741C14.7705 46.3311 13.957 47.5361 12.7334 48.2012C12.4199 48.3716 12.2427 48.6943 12.2437 49.0278V52.0815C12.2437 52.3628 12.0146 52.5923 11.7334 52.5923H9.64844C9.3667 52.5923 9.1377 52.3628 9.1377 52.0815V49.0278ZM6.40088 39.4468C6.40088 37.8828 7.67334 36.6104 9.2373 36.6104H12.1426C12.6631 36.6104 13.1509 36.752 13.5708 36.9971C14.4126 37.4897 14.98 38.4033 14.98 39.4473V40.522C14.98 42.8872 13.0557 44.8115 10.6904 44.8115C8.33154 44.8115 6.41162 42.8975 6.40137 40.541V39.4468H6.40088ZM25.9072 39.4468C25.9072 39.1538 25.9517 38.8706 26.0347 38.6045C26.0435 38.5767 26.0532 38.5493 26.0625 38.522C26.0684 38.5059 26.0732 38.4893 26.0796 38.4731C26.3662 37.6914 26.9878 37.0698 27.7695 36.7827C27.7856 36.7769 27.8022 36.772 27.8188 36.7661C27.8462 36.7568 27.873 36.7471 27.9009 36.7383C28.1675 36.6553 28.4502 36.6108 28.7437 36.6108H31.6499C31.8457 36.6108 32.0361 36.6304 32.2207 36.6685C32.2437 36.6733 32.2666 36.6787 32.2891 36.6841C32.312 36.6895 32.335 36.6943 32.3574 36.7002C33.5806 37.0151 34.4863 38.1279 34.4863 39.4478V40.522C34.4863 42.8872 32.562 44.8115 30.1968 44.8115C27.833 44.8115 25.9097 42.8901 25.9072 40.5269V39.4468ZM28.6436 49.0278C28.6436 49.0254 28.6436 49.0229 28.6436 49.021C28.6436 48.9546 28.6396 48.9097 28.6318 48.8813C28.5884 48.6025 28.4214 48.3462 28.1543 48.2012C26.9307 47.5366 26.1172 46.3315 25.9429 44.9746C27.0498 46.0327 28.5483 46.6846 30.1968 46.6846C31.8452 46.6846 33.3433 46.0327 34.4502 44.9746C34.2764 46.3315 33.4629 47.5366 32.2393 48.2012C31.9521 48.3569 31.7798 48.6411 31.7534 48.9434C31.751 48.9648 31.75 48.9902 31.7495 49.02V49.0278V52.0815C31.7495 52.3633 31.5205 52.5923 31.2388 52.5923H29.1538C28.8726 52.5923 28.6436 52.3633 28.6436 52.0815V49.0278ZM19.0679 61.7134H16.1797V59.6377C16.1797 59.1206 15.7607 58.7017 15.2432 58.7017C14.7261 58.7017 14.3071 59.1206 14.3071 59.6377V61.7134H7.14111V59.6377C7.14111 59.1206 6.72217 58.7017 6.20459 58.7017C5.6875 58.7017 5.26855 59.1206 5.26855 59.6377V61.7134H2.31201C2.06982 61.7134 1.87256 61.5171 1.87256 61.2754V57.71C1.87256 55.1226 3.97754 53.0181 6.56445 53.0181H7.45703C7.82178 53.8677 8.66602 54.4648 9.64795 54.4648H11.7329C12.7148 54.4648 13.5596 53.8682 13.9243 53.0181H14.8154C17.4023 53.0181 19.5073 55.1226 19.5073 57.71V61.2754C19.5073 61.5166 19.3101 61.7134 19.0679 61.7134ZM39.0132 61.2749C39.0132 61.5166 38.8169 61.7134 38.5752 61.7134H35.686V59.6377C35.686 59.1206 35.2671 58.7012 34.7495 58.7012C34.2324 58.7012 33.8135 59.1206 33.8135 59.6377V61.7134H26.6475V59.6377C26.6475 59.1206 26.2285 58.7012 25.7109 58.7012C25.1938 58.7012 24.7749 59.1206 24.7749 59.6377V61.7134H21.8184C21.5767 61.7134 21.3799 61.5166 21.3799 61.2749V57.7095C21.3799 55.1226 23.4839 53.0181 26.0703 53.0181H26.9629C27.3276 53.8677 28.1724 54.4648 29.1543 54.4648H31.2393C32.2212 54.4648 33.0654 53.8677 33.4302 53.0181H34.3228C36.9092 53.0181 39.0132 55.1226 39.0132 57.7095V61.2749ZM57.4297 54.6978C58.1348 55.5396 58.5229 56.6089 58.5229 57.7095V61.2749C58.5229 61.5166 58.3267 61.7129 58.085 61.7129H55.1958V59.6377C55.1958 59.1206 54.7769 58.7012 54.2593 58.7012C53.7422 58.7012 53.3232 59.1206 53.3232 59.6377V61.7129H46.1572V59.6377C46.1572 59.1206 45.7378 58.7012 45.2207 58.7012C44.7036 58.7012 44.2842 59.1206 44.2842 59.6377V61.7129H41.3276C41.0864 61.7129 40.8896 61.5166 40.8896 61.2749V57.7095C40.8896 55.1226 42.9937 53.0176 45.5801 53.0176H46.4736C46.5039 53.0879 46.5361 53.1577 46.5728 53.2251C46.9912 53.9897 47.793 54.4648 48.6636 54.4648H50.7485C51.7305 54.4648 52.5752 53.8677 52.9399 53.0176H53.8325C55.2236 53.0181 56.5352 53.6299 57.4297 54.6978ZM52.1763 47.9351C52.0552 48.0205 51.9277 48.1006 51.7988 48.1733C51.5454 48.3159 51.3599 48.5635 51.2905 48.833C51.27 48.8564 51.2593 48.9053 51.2593 48.9888V52.0815C51.2593 52.3628 51.0303 52.5923 50.7485 52.5923H48.6636C48.4771 52.5923 48.3052 52.4902 48.2163 52.3276C48.2065 52.3096 48.1978 52.291 48.1904 52.2725C48.2031 52.2109 48.21 52.147 48.21 52.0815C48.21 51.9692 48.1895 51.8623 48.1533 51.7627V49.0229C48.1533 49.0215 48.1533 49.0205 48.1533 49.019C48.1533 49.0078 48.1523 48.9966 48.1519 48.9849C48.1514 48.9629 48.1499 48.9414 48.1479 48.9233C48.147 48.9136 48.145 48.9033 48.1436 48.8936C48.1421 48.8862 48.1416 48.877 48.1396 48.8706C48.0933 48.5908 47.9224 48.3354 47.6523 48.1938C46.4116 47.5425 45.6157 46.3618 45.4502 44.9722C46.5576 46.0317 48.0566 46.6846 49.7065 46.6846C51.355 46.6846 52.853 46.0327 53.96 44.9746C53.8071 46.1582 53.1646 47.2383 52.1763 47.9351ZM62.1274 31.8027C62.1274 33.4106 60.8188 34.7192 59.2109 34.7192H59.083V23.8022C59.083 23.2852 58.6641 22.8657 58.147 22.8657C57.6294 22.8657 57.2104 23.2852 57.2104 23.8022V34.7192H48.5703V21.835C48.5703 21.1191 47.9878 20.5366 47.272 20.5366H32.3638C31.5957 20.5366 30.9707 19.9121 30.9707 19.1445V17.686H50.627C51.043 19.0083 52.2852 19.9746 53.7363 19.9746C55.1875 19.9746 56.4297 19.0083 56.8457 17.686H59.0952C60.7671 17.686 62.1274 19.0464 62.1274 20.7188V31.8027Z" fill="#0060FE"/>
</svg>
