<svg width="60" height="64" viewBox="0 0 60 64" fill="none" xmlns="http://www.w3.org/2000/svg">
<path d="M5.90761 28.3315L6.68748 27.65V62.1249H4.93748C4.41961 62.1249 3.99998 62.5446 3.99998 63.0624C3.99998 63.5801 4.41961 63.9999 4.93748 63.9999H43.1741C43.692 63.9999 44.1116 63.5801 44.1116 63.0624C44.1116 62.5446 43.692 62.1249 43.1741 62.1249C41.7751 62.1249 37.996 62.1249 36.4215 62.1249C35.455 62.1249 34.6675 61.3406 34.6635 60.3744C57.5557 60.3744 57.0885 60.367 57.399 60.3669C57.399 61.3362 56.6104 62.1249 55.6411 62.1249H47.5492C47.0314 62.1249 46.6117 62.5446 46.6117 63.0624C46.6117 63.5801 47.0314 63.9999 47.5492 63.9999H55.6411C57.6442 63.9999 59.274 62.3701 59.274 60.3669C59.274 59.4156 58.5555 58.4994 57.2839 58.4994C57.4744 58.0881 57.5815 57.6306 57.5815 57.1484V45.1405C57.5815 43.3617 56.1344 41.9145 54.3555 41.9145H53.3125V36.9265C53.3125 36.4087 52.8929 35.989 52.375 35.989C51.8571 35.989 51.4375 36.4087 51.4375 36.9265V41.9145H37.707C36.8824 41.9145 36.1294 42.2259 35.5585 42.7368L34.414 42.2935L34.4137 41.0197C36.352 39.6567 37.6221 37.405 37.6221 34.8607V31.5546C38.3622 31.2226 38.8799 30.4803 38.8799 29.618V24.6031C38.8799 23.786 38.5481 23.0288 37.9456 22.471C37.3577 21.9266 36.5822 21.6484 35.8152 21.707C35.7032 21.7155 35.5792 21.6651 35.5572 21.5518C35.205 19.7508 34.0282 18.8376 32.0597 18.8376H25.4704C22.539 18.8376 20.1541 21.2225 20.1541 24.1539V28.9595C20.1541 30.3022 21.1106 31.4258 22.3781 31.6846V34.8607C22.3781 37.1924 23.5255 39.5735 25.5825 41.0164V42.2668L16.9959 45.6204C16.9906 45.6225 16.9854 45.6246 16.9801 45.6268C15.0629 46.4159 12.9992 48.6741 12.9992 51.7676V62.1249H8.56248V26.0112L30 7.27537L51.4375 26.0114V32.5515C51.4375 33.0692 51.8571 33.489 52.375 33.489C52.8929 33.489 53.3125 33.0692 53.3125 32.5515V27.65L54.0924 28.3316C55.39 29.4654 57.3681 29.3324 58.5016 28.035C59.6384 26.7347 59.506 24.7624 58.2052 23.6256L53.3124 19.3494V5.34225H53.5607C54.4936 5.34225 55.2526 4.58325 55.2526 3.65025V1.692C55.2527 0.759 54.4937 0 53.5609 0H44.903C43.9701 0 43.2111 0.759 43.2111 1.692V3.65037C43.2111 4.58325 43.9701 5.34237 44.903 5.34237H45.1514V12.2169L32.0565 0.772C30.8841 -0.2525 29.1159 -0.252625 27.9435 0.772L1.79461 23.6256C0.494109 24.7621 0.361234 26.7344 1.49823 28.0351C2.63286 29.3334 4.61111 29.4647 5.90761 28.3315V28.3315ZM36.3559 45.1405C36.3559 44.4027 36.9565 43.7895 37.707 43.7895H54.3555C55.1004 43.7895 55.7065 44.3956 55.7065 45.1405V57.1484C55.7065 57.8933 55.1004 58.4994 54.3555 58.4994H37.7069C36.962 58.4994 36.3559 57.8934 36.3559 57.1484V45.1405ZM22.9352 29.8657C22.4355 29.8657 22.029 29.4592 22.029 28.9595V24.1539C22.029 22.2564 23.5727 20.7126 25.4702 20.7126H32.0596C33.3777 20.7126 33.5841 21.2324 33.7171 21.9116C33.9189 22.9435 34.8827 23.6592 35.9591 23.5765C36.2021 23.557 36.4687 23.6588 36.6717 23.8468C36.7961 23.962 37.0049 24.2135 37.0049 24.6033V29.6181C37.0049 30.1683 35.5537 29.7905 35.4401 28.673C35.4256 28.5256 35.4565 28.3144 35.3047 28.0365C34.9035 27.3015 33.8431 27.3084 33.4497 28.0441C32.8471 29.1711 31.682 29.8659 30.4139 29.8659C29.1232 29.8658 23.7395 29.8657 22.9352 29.8657V29.8657ZM24.253 34.8607V31.7407H30.4139C31.7725 31.7407 33.0876 31.2173 34.0735 30.281C34.465 30.8831 35.0535 31.3458 35.747 31.5771V34.8607C35.747 37.9899 33.196 40.5124 30.0952 40.5124C26.6046 40.5124 24.253 37.8015 24.253 34.8607V34.8607ZM33.5394 43.9656C33.5717 43.9781 33.8039 44.068 33.8362 44.0805C31.6465 46.313 28.082 46.0464 26.143 44.0607L26.5931 43.885C26.9347 43.7516 27.4574 43.2805 27.4574 42.5029V41.9639C28.9865 42.4822 30.8392 42.5635 32.5386 41.9789L32.5389 42.5047V42.5093C32.5406 43.1598 32.9339 43.7315 33.5394 43.9656V43.9656ZM14.8741 51.7676C14.8741 49.3907 16.553 47.8338 17.6862 47.3638L24.2896 44.7848C26.7147 47.9008 31.3895 48.4394 34.481 46.016V57.1485C34.481 57.6151 34.5857 58.0841 34.7776 58.4995C33.5015 58.4995 32.7885 59.4235 32.7885 60.367C32.7885 60.9985 32.9602 61.6209 33.2429 62.125H20.7096C20.7096 61.1054 20.7096 52.89 20.7096 51.7316C20.7096 51.2139 20.29 50.7941 19.7721 50.7941C19.2542 50.7941 18.8346 51.2139 18.8346 51.7316V54.6879H14.874V51.7676H14.8741ZM14.8741 56.5628H18.8347V62.1249H14.8741V56.5628ZM45.0861 3.46725V1.875H53.3777V3.46725C52.3912 3.46725 46.0412 3.46725 45.0861 3.46725ZM51.4375 5.34225V17.7106L47.0265 13.8555V5.34225H51.4375ZM3.02848 25.0374L29.1772 2.18388C29.6462 1.774 30.3535 1.774 30.8225 2.18388C31.9875 3.202 55.836 24.0451 56.9712 25.0375C57.4915 25.4924 57.5445 26.281 57.0897 26.8013C56.6364 27.32 55.8449 27.3735 55.326 26.9199C54.3002 26.0234 31.9916 6.526 30.963 5.62687C30.4146 5.1475 29.5864 5.14637 29.037 5.62687L4.67373 26.9198C4.15473 27.3735 3.36348 27.32 2.90986 26.8011C2.45598 26.2816 2.50736 25.493 3.02848 25.0374V25.0374Z" fill="black"/>
<path d="M45.3616 52.082H46.7009C47.2188 52.082 47.6384 51.6623 47.6384 51.1445C47.6384 50.6268 47.2188 50.207 46.7009 50.207H45.3616C44.8437 50.207 44.4241 50.6268 44.4241 51.1445C44.4241 51.6623 44.8438 52.082 45.3616 52.082Z" fill="black"/>
</svg>
