<svg width="64" height="62" viewBox="0 0 64 62" fill="none" xmlns="http://www.w3.org/2000/svg">
<path d="M57.8428 46.7181C57.3431 46.724 57.398 46.6997 56.7337 46.7462V31.2061C56.7337 29.543 55.3806 28.1899 53.7175 28.1899H46.1025C46.0984 28.1899 46.0945 28.1892 46.0904 28.1892H37.3214V4.77861L44.5132 11.7305C44.9197 12.1235 45.1529 12.673 45.1529 13.2384V24.7076C45.1529 25.2254 45.5726 25.6451 46.0904 25.6451C46.6081 25.6451 47.0279 25.2254 47.0279 24.7076V13.2384C47.0279 12.1676 46.5864 11.1266 45.8164 10.3824L37.0354 1.89449C36.838 1.70924 36.4597 1.54299 36.0851 1.67986L20.3325 6.97486V3.32486C20.3444 1.72999 18.9134 0.341861 17.2488 0.438611C15.6566 0.438611 14.3612 1.73336 14.3612 3.32486V8.98198L10.2399 10.3674C8.621 10.9116 7.53325 12.4246 7.53325 14.1326V46.7232C3.36137 46.8301 0 50.2546 0 54.4517V59.219C0 60.5132 1.05287 61.566 2.347 61.566H61.6529C62.9471 61.566 63.9999 60.5131 63.9999 59.219V52.8752C64 49.4802 61.2379 46.7181 57.8428 46.7181ZM57.8428 48.5931C60.204 48.5931 62.125 50.5141 62.125 52.8753V53.8589H53.0312V52.8753C53.0334 50.3127 55.285 48.3711 57.8428 48.5931ZM54.8587 31.2061V47.23C52.682 48.1802 51.1562 50.3524 51.1562 52.8752V53.8587H37.3214V30.0649H53.7175C54.3467 30.0649 54.8587 30.5769 54.8587 31.2061ZM16.2362 3.32486C16.2362 2.76724 16.6905 2.31361 17.2488 2.31361C17.7501 2.23999 18.4253 2.63311 18.4575 3.32486V7.60511L16.2362 8.35174V3.32486ZM7.53337 48.5965V53.8589H1.90475C2.19637 50.9711 4.59375 48.6957 7.53337 48.5965ZM1.875 59.2191V55.7339H7.53337V59.6911H2.34713C2.08675 59.6911 1.875 59.4793 1.875 59.2191ZM9.40837 14.1326C9.40837 13.2309 9.98262 12.4321 10.8374 12.1447L35.4465 3.87274V8.98086L15 15.8537C14.5092 16.0186 14.2451 16.5502 14.4101 17.0411C14.5417 17.4329 14.907 17.6801 15.2986 17.6801C15.3976 17.6801 15.4984 17.6644 15.5975 17.631L35.4465 10.9591V15.7285L15 22.6012C14.5092 22.7662 14.2451 23.2979 14.4101 23.7886C14.5417 24.1804 14.907 24.4276 15.2986 24.4276C15.3976 24.4276 15.4984 24.4119 15.5975 24.3785L35.4465 17.7065V22.4759L15 29.3487C14.5092 29.5136 14.2451 30.0452 14.4101 30.5361C14.5417 30.9279 14.907 31.1751 15.2986 31.1751C15.3976 31.1751 15.4984 31.1594 15.5975 31.126L35.4465 24.4541V29.1239C35.4465 29.1251 35.4464 29.1262 35.4464 29.1275V29.2236L15 36.0962C14.5092 36.2612 14.2451 36.7929 14.4101 37.2836C14.5417 37.6754 14.907 37.9226 15.2986 37.9226C15.3976 37.9226 15.4984 37.9069 15.5975 37.8735L35.4463 31.2015V35.971L22.6791 40.2625C22.1884 40.4274 21.9243 40.959 22.0893 41.4499C22.2209 41.8416 22.5861 42.0889 22.9778 42.0889C23.0768 42.0889 23.1775 42.0731 23.2766 42.0397L35.4463 37.949V59.691H27.3472V49.9494C27.3472 49.3109 27.0555 48.7231 26.5469 48.3371C26.0383 47.9511 25.3937 47.8281 24.7787 47.9999L16.0529 50.4359C15.057 50.7139 14.3615 51.6301 14.3615 52.6641V59.691H9.40837V14.1326ZM16.2365 52.6642C16.2365 52.4682 16.3684 52.2946 16.557 52.2419L19.9167 51.3039V59.6911H16.2364V52.6642H16.2365ZM21.7917 59.6911V50.7804L25.2829 49.8057C25.33 49.7925 25.374 49.8007 25.4131 49.8306C25.4522 49.8603 25.4721 49.9004 25.4721 49.9495V59.6911H21.7917ZM37.3214 59.6911V55.7339H51.1562V59.6911H37.3214ZM62.125 59.2191C62.125 59.4795 61.9132 59.6911 61.653 59.6911H53.0312V55.7339H62.125V59.2191Z" fill="black"/>
<path d="M15.2986 44.6701C15.3976 44.6701 15.4984 44.6544 15.5975 44.621L19.0782 43.451C19.569 43.2861 19.8331 42.7545 19.6681 42.2636C19.5031 41.7727 18.9715 41.5085 18.4807 41.6737L15 42.8438C14.5093 43.0086 14.2451 43.5403 14.4101 44.0311C14.5418 44.4228 14.907 44.6701 15.2986 44.6701V44.6701Z" fill="black"/>
<path d="M41.4271 37.7974H50.621C51.4929 37.7974 52.2021 37.0882 52.2021 36.2164V33.9598C52.2021 33.0879 51.4929 32.3787 50.621 32.3787H41.4271C40.5553 32.3787 39.8461 33.0879 39.8461 33.9598V36.2164C39.8461 37.0882 40.5554 37.7974 41.4271 37.7974ZM41.7211 34.2537H50.3271V35.9224H41.7211V34.2537Z" fill="black"/>
<path d="M41.4271 44.9261H50.621C51.4929 44.9261 52.2021 44.2168 52.2021 43.345V41.0883C52.2021 40.2165 51.4929 39.5073 50.621 39.5073H41.4271C40.5553 39.5073 39.8461 40.2166 39.8461 41.0883V43.345C39.8461 44.2168 40.5554 44.9261 41.4271 44.9261ZM41.7211 41.3823H50.3271V43.0511H41.7211V41.3823Z" fill="black"/>
<path d="M41.4271 52.1277H44.4681C45.34 52.1277 46.0493 51.4185 46.0493 50.5467V48.2901C46.0493 47.4182 45.34 46.709 44.4681 46.709H41.4271C40.5553 46.709 39.8461 47.4182 39.8461 48.2901V50.5467C39.8461 51.4185 40.5554 52.1277 41.4271 52.1277ZM41.7211 48.584H44.1743V50.2527H41.7211V48.584Z" fill="black"/>
</svg>
