<svg width="32" height="32" viewBox="0 0 32 32" fill="none" xmlns="http://www.w3.org/2000/svg">
<path d="M16.9375 15.1568V9.59875C18.0287 9.98575 18.8125 11.0278 18.8125 12.25H20.6875C20.6875 9.98631 19.0745 8.09238 16.9375 7.65681V6H15.0625V7.65681C12.9255 8.09231 11.3125 9.98625 11.3125 12.25C11.3125 14.5138 12.9255 16.4076 15.0625 16.8432V22.4013C13.9713 22.0143 13.1875 20.9722 13.1875 19.75H11.3125C11.3125 22.0137 12.9255 23.9076 15.0625 24.3432V26H16.9375V24.3432C19.0745 23.9077 20.6875 22.0138 20.6875 19.75C20.6875 17.4862 19.0745 15.5924 16.9375 15.1568ZM15.0625 14.9012C13.9713 14.5142 13.1875 13.4722 13.1875 12.25C13.1875 11.0278 13.9713 9.98575 15.0625 9.59875V14.9012ZM16.9375 22.4013V17.0987C18.0287 17.4857 18.8125 18.5278 18.8125 19.75C18.8125 20.9722 18.0287 22.0143 16.9375 22.4013Z" fill="white"/>
<path d="M16 0C7.16344 0 0 7.16344 0 16C0 24.8366 7.16344 32 16 32C24.8366 32 32 24.8366 32 16C32 7.16344 24.8366 0 16 0ZM16 30.125C8.199 30.125 1.875 23.801 1.875 16C1.875 8.199 8.199 1.875 16 1.875C23.801 1.875 30.125 8.199 30.125 16C30.125 23.801 23.801 30.125 16 30.125Z" fill="white"/>
</svg>
