<svg width="64" height="64" viewBox="0 0 64 64" fill="none" xmlns="http://www.w3.org/2000/svg">
<g clip-path="url(#clip0_83_319)">
<path d="M61.8396 39.7232C61.5675 37.4934 60.6832 35.7459 58.6911 34.5289C57.2478 33.6452 56.0792 33.5077 50.5521 32.1316V31.8427H56.0691C57.4068 31.8427 58.4972 30.7627 58.5137 29.4287C59.2101 17.6199 59.3151 16.267 59.2676 15.7089C59.2676 15.191 58.848 14.7714 58.3301 14.7714C57.8122 14.7714 57.3926 15.191 57.3926 15.7089V16.5983C56.6062 29.9349 56.639 29.3437 56.639 29.3977C56.639 29.7065 56.378 29.9675 56.0691 29.9675H50.5521V29.7249C50.8545 29.5228 53.0951 28.5349 54.722 25.8992C56.5238 22.9915 56.2728 20.5339 56.2761 18.154C56.2761 17.2004 55.5322 16.4249 54.5825 16.3885H54.5823C47.6298 16.1228 44.0623 12.1819 43.1343 10.9803C42.8494 10.6113 42.4186 10.3905 41.9524 10.3745C41.4882 10.3604 41.0397 10.5495 40.7296 10.8986C39.2706 12.541 37.6203 13.0606 36.7664 13.2241C35.9928 13.3724 35.4312 14.0526 35.4312 14.8418C35.4346 20.7344 35.4239 20.4098 35.4397 20.8243C35.4648 24.4839 37.9278 28.1622 41.1186 29.7065V29.9672H35.5222C35.2133 29.9672 34.9524 29.7062 34.9524 29.3973C34.9524 29.3427 34.9838 29.9107 34.1972 16.5703C34.1961 16.5531 34.1946 16.5356 34.1927 16.5188C34.1816 16.4214 33.1459 6.76337 38.5684 5.57174C38.8413 5.51187 39.0733 5.33312 39.2011 5.08462C39.2237 5.04087 41.5364 0.722481 48.9971 2.17536C51.9666 2.74161 56.41 6.27774 57.2445 11.482C57.3263 11.9931 57.8066 12.3403 58.3186 12.2593C58.8299 12.1774 59.1779 11.6964 59.0958 11.1851C58.7348 8.72 57.5077 6.11774 55.6522 4.14299L55.5856 4.07174C53.7238 2.09998 50.9531 0.645981 49.3548 0.334855C46.84 -0.154646 43.2079 -0.339397 40.1841 1.56073C38.8818 2.37873 38.1226 3.32261 37.7712 3.83999C35.0048 4.62549 33.1926 7.09225 32.5186 11.0033C32.0368 13.798 32.2931 16.3918 32.3271 16.7053C33.2052 30.2663 32.9041 29.7588 33.4124 30.6275C30.7483 30.1992 28.0367 30.9607 25.9818 32.9032L25.1623 32.6991C25.1397 32.6882 23.0767 31.7008 22.8822 31.6078V29.7049C27.5257 27.4012 28.2687 22.7925 28.3135 22.7078C28.4763 21.9748 28.5654 21.1994 28.5654 20.421V20.4119C30.2584 20.043 31.5169 18.6998 31.5169 17.1031C31.5169 16.4418 31.3003 15.8243 30.9269 15.3009C30.9423 12.8353 31.012 11.3849 30.4841 9.44038C30.3489 9.09625 29.9064 6.91837 27.944 4.57749C27.941 4.57374 27.9378 4.56986 27.9348 4.56624C24.308 0.25273 18.053 -1.39377 12.4424 1.34023C8.18526 3.46299 5.35813 7.84125 5.35813 12.7858C5.35826 13.6086 5.35788 15.2013 5.35851 15.301C3.96476 17.2544 5.15476 19.8534 7.72064 20.4121C7.80626 24.663 10.0928 28.0173 13.4488 29.7272V31.5864L11.075 32.7227C8.48889 33.4467 6.48239 33.6359 4.94651 34.7748C3.08613 36.1952 2.43425 37.4821 2.16025 39.7326C-0.0637501 59.8492 -0.011875 58.6279 0.00337506 59.5235C-0.02375 61.9126 1.64625 63.997 4.40951 63.997L12.6051 63.9969C13.123 63.9969 13.5426 63.5773 13.5426 63.0594C13.5426 62.5415 13.123 62.1219 12.6051 62.1219H9.08252L10.0121 44.5382C10.0395 44.0212 9.64252 43.58 9.12539 43.5526C8.61026 43.5238 8.16701 43.9222 8.13976 44.4393L7.94426 48.1376L3.16213 47.636L3.17776 47.4967C4.14288 39.8541 3.79601 38.6961 5.08588 37.1623L5.09663 37.1494C6.66726 35.2948 9.15751 35.2538 11.0856 34.6521L13.9676 38.3413C14.6568 39.2238 15.9655 39.3028 16.7559 38.5067L17.2054 38.0537V42.5905C17.2054 43.1083 17.625 43.528 18.1429 43.528C18.6608 43.528 19.0804 43.1083 19.0804 42.5905V38.0538L19.5298 38.5067C19.8803 38.8598 20.3565 39.0568 20.851 39.0568C20.8877 39.0568 20.9245 39.0557 20.9613 39.0537C21.4947 39.0219 21.9892 38.7624 22.318 38.3414L23.6354 36.6552C23.0892 38.4148 23.2809 39.7367 23.2405 40.4841C21.4434 42.1678 22.3599 44.9298 24.898 45.4932C25.2594 47.6083 26.5432 49.505 28.5725 50.6161V51.7562C25.2653 52.647 22.6643 52.6836 21.4873 55.4882C21.4368 55.6087 21.4028 55.7091 21.367 55.8245C21.319 55.9765 21.274 56.1552 21.2494 56.2737C21.105 56.9727 21.0994 57.4149 20.5487 62.1219H16.9802C16.4623 62.1219 16.0427 62.5415 16.0427 63.0594C16.0427 63.5773 16.4623 63.9969 16.9802 63.9969H21.3854H21.3969C21.3977 63.9969 21.3984 63.997 21.399 63.997C21.3999 63.997 21.4008 63.9969 21.4017 63.9969H42.5998C42.5998 63.9969 42.6016 63.997 42.6024 63.997C42.6024 63.997 42.6039 63.9969 42.6046 63.9969H42.6158H46.5725C47.0903 63.9969 47.51 63.5773 47.51 63.0594C47.51 62.5415 47.0903 62.1219 46.5725 62.1219H43.4526C42.9436 58.383 42.9919 56.7766 42.5674 55.6249C42.0032 54.0857 40.6299 53.0565 39.1423 52.6805L35.4288 51.756V50.5996C37.3816 49.529 38.7173 47.6297 39.0734 45.493C39.0863 45.4857 41.2562 45.0893 41.6222 43.0423C41.7264 42.4718 41.6472 41.8692 41.3599 41.3122C43.1448 40.9491 44.89 39.6298 45.8332 38.8122C50.6112 42.9567 54.9023 42.4377 55.2526 35.2338C55.9401 35.4472 59.1884 35.9446 59.8376 39.0852C59.8864 39.3207 59.9423 39.6548 59.9773 39.9406L60.8381 47.6333L56.0935 48.1311L55.8983 44.439C55.8711 43.9218 55.4237 43.5223 54.9127 43.5522C54.3956 43.5796 53.9986 44.0208 54.026 44.5378L54.9555 62.1215H50.9472C50.4293 62.1215 50.0097 62.5411 50.0097 63.059C50.0097 63.5769 50.4293 63.9965 50.9472 63.9965L59.5909 63.9966C60.8537 63.9966 61.9379 63.5743 62.7262 62.7751C63.5367 61.9536 64.0116 60.7374 63.9971 59.5204C64.0094 58.7306 64.0737 59.843 61.8396 39.7232ZM7.78764 50.0065L7.17901 62.1219H4.40938C2.77888 62.1219 1.91413 61.0547 1.87813 59.5056C1.86688 58.8419 1.9025 59.0665 2.95363 49.4992L7.78764 50.0065ZM28.5653 18.455V15.7519C29.9971 16.3425 29.9973 17.8643 28.5653 18.455ZM7.72039 18.4553C6.28776 17.8645 6.28764 16.3424 7.72039 15.7516V18.4553ZM8.53076 13.6966C8.07401 13.7096 7.63726 13.7919 7.23314 13.9318C7.24501 12.9506 7.17264 12.0618 7.42701 10.7306C7.53564 10.44 7.94876 7.25037 10.8984 4.62911H10.8983C11.2931 4.32336 11.9418 3.64124 13.6141 2.85761C17.2179 1.21186 21.6265 1.47098 25.3869 4.62924C27.93 6.88849 28.4863 9.451 28.673 9.92588C29.1963 11.8555 29.0129 13.2188 29.0523 13.9319C28.6483 13.7919 28.2117 13.7098 27.7552 13.6968C27.5174 13.5624 27.2974 13.3763 27.1243 13.1856C25.846 11.7129 26.9303 10.5724 25.5592 9.42813C24.5924 8.62137 23.6667 8.92962 21.9558 9.15337C13.9876 10.0125 12.3888 8.04112 10.7266 9.42813C10.2364 9.83725 9.92777 10.4289 9.90677 11.1628C9.83164 13.1534 8.61202 13.605 8.53076 13.6966ZM9.59539 20.4213C9.59539 19.3779 9.59539 17.0366 9.59539 15.2444C10.305 14.733 10.8269 14.3185 11.2938 13.3279C11.5616 12.7618 11.7573 12.0479 11.7836 11.1626C11.7898 10.9199 12.018 10.7344 12.2666 10.7741C22.1664 12.0921 24.4718 9.96663 24.502 11.1621C24.5615 13.2581 25.7137 14.4109 25.7322 14.4419C26.0763 14.8219 26.297 14.961 26.6899 15.2443C26.69 16.2193 26.6897 19.4793 26.6903 19.5828C26.6283 19.8535 27.3563 25.1749 22.0628 28.0185H22.0629C22.0497 28.024 20.6839 28.8087 18.7088 28.9477C18.2125 28.9802 17.724 28.9588 17.7367 28.959C13.0981 28.7427 9.59539 24.8957 9.59539 20.4213ZM15.436 37.1752L12.9116 33.9437L14.1815 33.3359L16.7997 35.8011L15.436 37.1752ZM18.1429 34.4904L15.3237 31.8361V30.456C17.193 30.9818 19.1585 30.9598 20.9847 30.4495V31.8147L18.1429 34.4904ZM20.8498 37.1752L19.4863 35.8011L22.1194 33.3217L23.3864 33.9282L20.8498 37.1752ZM24.7972 43.4682C23.9417 42.9795 24.0148 42.0948 24.7972 41.65V43.4682ZM39.6194 26.2685C36.6531 22.9725 37.3087 19.9993 37.3059 15.028C38.3808 14.7939 40.2169 14.1544 41.8814 12.4155C43.2137 14.023 47.187 17.9448 54.4008 18.2581C54.3968 20.75 54.4078 20.3053 54.3925 20.8084L54.3921 20.8055C54.308 21.1423 54.4803 24.2387 51.3282 26.9845C51.3153 26.995 51.2071 27.0833 51.2201 27.0728C48.2862 29.4429 44.2068 29.5458 41.2209 27.6043C41.0322 27.482 39.8314 26.4715 39.6194 26.2685ZM36.2529 53.8937L36.2929 53.9037C38.1867 54.4207 38.8238 54.4217 39.6397 54.9104C41.3478 55.9339 40.8659 57.1965 41.5553 62.122H39.0599L38.9489 60.0985C38.9206 59.5814 38.4786 59.1846 37.9616 59.2139C37.4446 59.2422 37.0484 59.6844 37.0769 60.2012L37.1823 62.1219H26.8447L26.95 60.2012C26.9785 59.6842 26.5824 59.2421 26.0654 59.2139C25.5455 59.1859 25.1063 59.5815 25.078 60.0985L24.967 62.122H22.4463C23.0674 56.7932 22.8045 55.8434 24.3618 54.9104C25.1399 54.4437 25.6457 54.4509 27.7483 53.8937C28.8194 55.1055 30.3657 55.8126 32.0007 55.8126C33.6357 55.8126 35.1819 55.1056 36.2529 53.8937ZM30.4473 51.3118C30.8177 51.3927 31.2221 51.4491 31.6429 51.4687C31.6657 51.4698 31.6881 51.4706 31.7107 51.4712L31.7776 51.4735C32.4551 51.4915 33.1131 51.4153 33.5538 51.3051C33.6002 51.6653 33.3482 52.7131 34.1321 53.2812C32.8434 54.1555 31.1601 54.1571 29.8689 53.2812C30.6506 52.7147 30.4027 51.6561 30.4473 51.3118ZM37.2893 44.5936C37.2854 44.6622 37.2808 44.727 37.2753 44.7893C37.0968 46.7055 35.8981 48.3246 34.2411 49.1007C34.1988 49.106 31.3721 50.6187 28.6507 48.4241C28.6205 48.3822 27.0097 47.2545 26.7165 44.9792C26.6369 44.3682 26.6879 43.8805 26.6722 41.2752C30.7886 42.1267 33.6577 40.4734 34.9131 38.8341C35.7454 40.0597 36.6931 40.5863 37.2989 40.8097C37.2972 44.8232 37.3047 44.3148 37.2893 44.5936ZM38.8557 39.5828C38.5407 39.1953 38.1693 39.1232 38.0207 39.0759C37.6076 38.9438 36.8142 38.5293 36.1407 37.2369C35.6142 36.2269 34.1668 36.2648 33.6836 37.2813C33.1352 38.4344 30.6329 40.4402 26.3979 39.2819C25.9879 39.1703 25.5452 39.2638 25.2085 39.5711C25.1772 39.5753 25.1463 39.5808 25.1153 39.5858C25.1178 38.9702 25.1227 38.9466 25.1222 38.9592C25.3627 33.2377 32.1988 30.275 36.5367 34.1104C36.5361 34.1153 36.5476 34.1147 36.5471 34.1196C37.6553 35.1049 38.4128 36.3789 38.7336 37.9631C38.8911 38.7877 38.8488 39.4538 38.8557 39.5828ZM37.9956 32.9092C37.5237 32.4621 37.1474 32.1721 36.6222 31.8429H41.1186V32.1318L37.9956 32.9092ZM39.1741 43.4696V41.6501C39.5081 41.8411 39.7913 42.1721 39.7913 42.5598C39.7913 43.0466 39.4221 43.2836 39.1741 43.4696ZM40.7307 39.5232C40.7117 39.3811 40.8329 38.0746 40.2461 36.3817C41.2324 37.2267 42.3798 37.8363 43.6169 38.1678C42.7224 38.8102 41.6429 39.4234 40.7307 39.5232ZM40.7158 34.1642L41.9323 33.8614C41.9874 33.8477 42.0412 33.8289 42.0929 33.8056C42.6399 33.5576 42.9933 32.9268 42.9933 32.1987L42.9934 30.4445C44.6897 30.926 46.4816 31.0194 48.677 30.4549V32.1987C48.677 32.9269 49.0305 33.5578 49.5776 33.8056C49.6293 33.8291 49.6831 33.8477 49.7381 33.8614L50.9515 34.1636C48.2007 37.3822 43.4725 37.3889 40.7158 34.1642ZM51.8028 39.4243C50.7163 39.8776 49.0038 38.8594 48.0378 38.1609C50.0283 37.6091 51.7211 36.4014 52.9375 34.6579L53.3947 34.7718C53.3166 37.3841 52.7591 39.0256 51.8028 39.4243ZM61.3917 61.4586C60.3977 62.466 59.0485 62.0021 56.8331 62.1219L56.1926 50.0062L61.0466 49.497L62.1029 58.9365C62.1819 59.8687 62.054 60.7874 61.3917 61.4586Z" fill="#0060FE"/>
</g>
<defs>
<clipPath id="clip0_83_319">
<rect width="64" height="64" fill="white"/>
</clipPath>
</defs>
</svg>
