<svg width="40" height="40" viewBox="0 0 40 40" fill="none" xmlns="http://www.w3.org/2000/svg">
<circle cx="20" cy="20" r="20" fill="#0060FE"/>
<g clip-path="url(#clip0_83_699)">
<path d="M28.8496 9.46628C28.6587 9.42836 28.4741 9.55216 28.4363 9.74261C28.3985 9.93306 28.5222 10.1181 28.7126 10.156C30.21 10.4535 31.2969 11.7795 31.2969 13.3089V17.9406C31.2969 19.7135 29.8545 21.1558 28.0817 21.1558H27.6055C27.4113 21.1558 27.2539 21.3132 27.2539 21.5073V23.3411C27.2539 23.7173 27.0071 23.9441 26.7762 24.0309C26.5451 24.1178 26.2098 24.1096 25.9618 23.8263L23.7301 21.2758C23.6633 21.1996 23.5669 21.1558 23.4655 21.1558H18.8023C17.0295 21.1558 15.5872 19.7135 15.5872 17.9406V13.3089C15.5872 11.536 17.0295 10.0937 18.8023 10.0937H27.3786C27.5728 10.0937 27.7302 9.93634 27.7302 9.74219C27.7302 9.54803 27.5728 9.39062 27.3786 9.39062H18.8023C16.6418 9.39062 14.8841 11.1483 14.8841 13.3089V15.2172H11.9183C9.75772 15.2172 8 16.9749 8 19.1355V23.0641C8 23.2582 8.15736 23.4156 8.35156 23.4156C8.54577 23.4156 8.70312 23.2582 8.70312 23.0641V19.1355C8.70312 17.3626 10.1455 15.9203 11.9183 15.9203H14.8841V17.9406C14.8841 20.1012 16.6418 21.8589 18.8024 21.8589H23.306L24.4128 23.1238V23.7672C24.4128 25.54 22.9705 26.9823 21.1977 26.9823H16.5345C16.4331 26.9823 16.3367 27.0261 16.2699 27.1024L14.0383 29.6528C13.7902 29.9361 13.4551 29.9443 13.2239 29.8574C12.9929 29.7706 12.7461 29.5436 12.7461 29.1672V27.3339C12.7461 27.1397 12.5887 26.9823 12.3945 26.9823H11.9183C10.3888 26.9823 9.06284 25.8955 8.76528 24.398C8.72736 24.2076 8.54225 24.0839 8.35194 24.1217C8.16153 24.1595 8.03783 24.3446 8.07561 24.535C8.43833 26.3605 10.0544 27.6854 11.9183 27.6854H12.043V29.1671C12.043 29.7731 12.4094 30.3024 12.9765 30.5155C13.1447 30.5787 13.3178 30.6094 13.4887 30.6094C13.8941 30.6094 14.2865 30.4367 14.5674 30.1158L16.6941 27.6854H21.1977C23.306 27.6854 25.0299 26.0114 25.112 23.9228L25.4327 24.2893C25.7135 24.6101 26.1058 24.7829 26.5114 24.7829C26.6823 24.7829 26.8555 24.7522 27.0237 24.689C27.5907 24.4758 27.9571 23.9468 27.9571 23.341V21.8589H28.0818C30.2423 21.8589 32 20.1011 32 17.9406V13.3089C32 11.4451 30.675 9.829 28.8496 9.46628Z" fill="white"/>
<path d="M15.2646 23.1217V23.0996C15.2646 22.9055 15.1073 22.748 14.9131 22.748C14.7189 22.748 14.5615 22.9055 14.5615 23.0996V23.1217C14.5615 23.3159 14.7189 23.4733 14.9131 23.4733C15.1073 23.4733 15.2646 23.3159 15.2646 23.1217Z" fill="white"/>
<path d="M16.608 23.4733C16.8022 23.4733 16.9595 23.3159 16.9595 23.1217V23.0996C16.9595 22.9055 16.8022 22.748 16.608 22.748C16.4138 22.748 16.2564 22.9055 16.2564 23.0996V23.1217C16.2564 23.3159 16.4138 23.4733 16.608 23.4733Z" fill="white"/>
<path d="M18.5545 23.1217V23.0996C18.5545 22.9055 18.3972 22.748 18.203 22.748C18.0088 22.748 17.8514 22.9055 17.8514 23.0996V23.1217C17.8514 23.3159 18.0088 23.4733 18.203 23.4733C18.3972 23.4733 18.5545 23.3159 18.5545 23.1217Z" fill="white"/>
<path d="M23.7935 16.6423C24.2723 16.567 24.7101 16.3376 25.0514 15.978C25.4747 15.5322 25.6903 14.9479 25.6583 14.3327C25.5983 13.1777 24.6448 12.2547 23.4876 12.2314C22.3639 12.2091 21.3991 13.0298 21.244 14.1413C21.2298 14.243 21.2226 14.347 21.2226 14.4503C21.2226 14.6445 21.38 14.8019 21.5742 14.8019C21.7684 14.8019 21.9258 14.6445 21.9258 14.4503C21.9258 14.3794 21.9307 14.308 21.9404 14.2384C22.0463 13.4795 22.7066 12.919 23.4734 12.9344C24.2639 12.9503 24.9152 13.5806 24.9561 14.3692C24.978 14.7899 24.8308 15.1893 24.5415 15.4939C24.2521 15.7987 23.8617 15.9665 23.442 15.9665C23.2478 15.9665 23.0904 16.1239 23.0904 16.3181V17.3872C23.0904 17.5814 23.2478 17.7388 23.442 17.7388C23.6362 17.7388 23.7935 17.5814 23.7935 17.3872V16.6423Z" fill="white"/>
<path d="M23.442 18.4121C23.2478 18.4121 23.0904 18.5695 23.0904 18.7637V18.7858C23.0904 18.9799 23.2478 19.1373 23.442 19.1373C23.6362 19.1373 23.7935 18.9799 23.7935 18.7858V18.7637C23.7935 18.5695 23.6361 18.4121 23.442 18.4121Z" fill="white"/>
</g>
<defs>
<clipPath id="clip0_83_699">
<rect width="24" height="24" fill="white" transform="translate(8 8)"/>
</clipPath>
</defs>
</svg>
