<svg width="20" height="20" viewBox="0 0 20 20" fill="none" xmlns="http://www.w3.org/2000/svg">
<path d="M10.0001 0C15.5101 0 20.0001 4.48 20.0001 10C20.0001 15.51 15.5101 20 10.0001 20C4.48012 20 0.00012207 15.51 0.00012207 10C0.00012207 4.48 4.48012 0 10.0001 0ZM7.06012 8.03C6.77012 7.73 6.29012 7.73 6.00012 8.02C5.70012 8.32 5.70012 8.79 6.00012 9.08L9.47012 12.57C9.61012 12.71 9.80012 12.79 10.0001 12.79C10.2001 12.79 10.3901 12.71 10.5301 12.57L14.0001 9.08C14.1501 8.94 14.2201 8.75 14.2201 8.56C14.2201 8.36 14.1501 8.17 14.0001 8.02C13.7001 7.73 13.2301 7.73 12.9401 8.03L10.0001 10.98L7.06012 8.03Z" fill="#0060FE"/>
</svg>
