<svg width="64" height="64" viewBox="0 0 64 64" fill="none" xmlns="http://www.w3.org/2000/svg">
<path d="M63.0625 58.0838H59.2012V43.4575C59.2012 42.9398 58.7815 42.52 58.2637 42.52C57.746 42.52 57.3262 42.9398 57.3262 43.4575V58.0838H49.1V25.8663H57.3262V39.0825C57.3262 39.6003 57.746 40.02 58.2637 40.02C58.7815 40.02 59.2012 39.6003 59.2012 39.0825V24.9288C59.2012 24.411 58.7815 23.9913 58.2637 23.9913H48.1625C47.6447 23.9913 47.225 24.411 47.225 24.9288V58.0838H45.0595V29.9796C45.0595 29.4619 44.6398 29.0421 44.122 29.0421H34.0204C33.5026 29.0421 33.0829 29.4619 33.0829 29.9796V58.0838H30.9172V37.5559C30.9172 37.0381 30.4975 36.6184 29.9797 36.6184H19.8781C19.3604 36.6184 18.9406 37.0381 18.9406 37.5559V58.0838H16.775V43.6169C16.775 43.0991 16.3552 42.6794 15.8375 42.6794H5.73575C5.218 42.6794 4.79825 43.0991 4.79825 43.6169V58.0838H0.9375C0.41975 58.0838 0 58.5035 0 59.0213V63.0625C0 63.5803 0.41975 64 0.9375 64H11.0625C11.5802 64 12 63.5803 12 63.0625C12 62.5448 11.5802 62.125 11.0625 62.125H1.875V59.9588H62.125V62.125H15.4375C14.9198 62.125 14.5 62.5448 14.5 63.0625C14.5 63.5803 14.9198 64 15.4375 64H63.0625C63.5802 64 64 63.5803 64 63.0625V59.0213C64 58.5035 63.5802 58.0838 63.0625 58.0838ZM34.9579 30.9171H43.1845V58.0838H34.9579V30.9171ZM20.8155 38.4934H29.0421V58.0838H20.8155V38.4934ZM6.67325 44.5544H14.8999V58.0838H6.67325V44.5544Z" fill="#0060FE"/>
<path d="M5.60999 34.2H19.8775C20.7052 34.2 21.5002 33.8504 22.0586 33.241L33.6799 20.5625H41.5962C42.3866 20.5625 43.1295 20.255 43.6879 19.6966L53.2862 10.0983V13.0599C53.2862 13.5776 53.706 13.9974 54.2237 13.9974H58.2637C58.7815 13.9974 59.2012 13.5776 59.2012 13.0599V2.9575C59.2012 1.32675 57.8745 0 56.2437 0H46.1425C45.6247 0 45.205 0.41975 45.205 0.9375V4.97875C45.205 5.4965 45.6247 5.91625 46.1425 5.91625H49.103L40.3717 14.6475H32.3787C31.5519 14.6475 30.7572 14.9971 30.199 15.6064L18.5764 28.285H15.9912C15.4735 28.285 15.0537 28.7048 15.0537 29.2225C15.0537 29.7402 15.4735 30.16 15.9912 30.16H18.9887C19.2515 30.16 19.5022 30.0498 19.6797 29.856L31.5811 16.8734C31.7854 16.6505 32.076 16.5226 32.3786 16.5226H40.7599C41.0085 16.5226 41.247 16.4239 41.4227 16.248L52.029 5.64175C52.2971 5.37362 52.3774 4.97038 52.2322 4.62012C52.0871 4.26975 51.7452 4.04138 51.3661 4.04138H47.0799V1.875H56.2436C56.8405 1.875 57.3261 2.36063 57.3261 2.9575V12.1225H55.1611V7.835C55.1611 7.45587 54.9327 7.114 54.5824 6.96887C54.2322 6.824 53.8287 6.904 53.5607 7.17212L42.3621 18.3708C42.1579 18.575 41.8857 18.6875 41.5962 18.6875H33.2675C33.0046 18.6875 32.754 18.7978 32.5764 18.9915L20.6762 31.9741C20.472 32.1971 20.1809 32.325 19.8775 32.325H6.54749V30.16H11.6162C12.134 30.16 12.5537 29.7402 12.5537 29.2225C12.5537 28.7048 12.134 28.285 11.6162 28.285H5.60999C5.09224 28.285 4.67249 28.7048 4.67249 29.2225V33.2625C4.67249 33.7803 5.09224 34.2 5.60999 34.2Z" fill="#0060FE"/>
</svg>
