<svg width="64" height="64" viewBox="0 0 64 64" fill="none" xmlns="http://www.w3.org/2000/svg">
<path d="M56.6656 24.3386H40.5003C39.9826 24.3386 39.5629 24.7584 39.5629 25.276C39.5629 25.7936 39.9827 26.2134 40.5003 26.2134H56.6657C57.1834 26.2134 57.6031 25.7936 57.6031 25.276C57.6031 24.7584 57.1833 24.3386 56.6656 24.3386Z" fill="#0060FE"/>
<path d="M56.6656 29.9902H40.5003C39.9826 29.9902 39.5629 30.41 39.5629 30.9276C39.5629 31.4452 39.9827 31.865 40.5003 31.865H56.6657C57.1834 31.865 57.6031 31.4452 57.6031 30.9276C57.6031 30.41 57.1833 29.9902 56.6656 29.9902Z" fill="#0060FE"/>
<path d="M57.6031 36.5792C57.6031 36.0615 57.1833 35.6418 56.6657 35.6418H40.5003C39.9826 35.6418 39.5629 36.0616 39.5629 36.5792C39.5629 37.0968 39.9827 37.5166 40.5003 37.5166H56.6657C57.1833 37.5167 57.6031 37.097 57.6031 36.5792Z" fill="#0060FE"/>
<path d="M40.5003 41.2935C39.9826 41.2935 39.5629 41.7133 39.5629 42.2309C39.5629 42.7485 39.9827 43.1683 40.5003 43.1683H48.5829C49.1007 43.1683 49.5203 42.7485 49.5203 42.2309C49.5203 41.7133 49.1006 41.2935 48.5829 41.2935H40.5003Z" fill="#0060FE"/>
<path d="M62.3274 11.0239L52.6623 1.35875C51.8035 0.499375 50.6269 0 49.3823 0H17.5774C15.0199 0 12.9393 2.08075 12.9393 4.63825V14.2359C12.9393 14.7536 13.359 15.1733 13.8767 15.1733C14.3943 15.1733 14.814 14.7535 14.814 14.2359V4.63825C14.814 3.1145 16.0537 1.87487 17.5774 1.87487H49.3823C49.5845 1.87487 49.7834 1.8965 49.9778 1.93938V10.4764C49.9778 12.2584 51.4275 13.7081 53.2095 13.7081H61.7455C61.7888 13.9038 61.8109 14.1041 61.8109 14.3036V59.3619C61.8109 60.8855 60.5713 62.1253 59.0475 62.1253H46.454C47.5502 60.4864 47.3757 58.2434 45.9297 56.7974L37.4065 48.2743C36.7858 47.6535 35.8822 47.4868 35.107 47.7695L33.272 45.9345C38.449 38.7455 37.6857 28.7987 31.3544 22.4674C24.3278 15.4409 12.799 15.3009 5.63265 22.4674C-1.45885 29.5589 -1.45885 41.0976 5.63265 48.1891C11.9584 54.515 21.9147 55.2669 29.0992 50.1061L30.9348 51.9417C30.652 52.7169 30.8188 53.6205 31.4397 54.2412L39.3237 62.1253H17.5774C16.0538 62.1253 14.814 60.8856 14.814 59.3619V56.3575C14.814 55.8397 14.3943 55.4201 13.8767 55.4201C13.359 55.4201 12.9393 55.8399 12.9393 56.3575V59.3619C12.9393 61.9194 15.02 64 17.5774 64H59.0477C61.6052 64 63.6859 61.9193 63.6859 59.3619V14.3036C63.6859 13.0871 63.2032 11.899 62.3274 11.0239ZM6.95853 46.8634C0.598026 40.5029 0.598026 30.1536 6.95853 23.793C13.4 17.3515 23.7385 17.5028 30.0289 23.793C35.8857 29.6499 36.4313 38.9555 31.2979 45.4388C30.5099 46.4339 29.6005 47.3436 28.6043 48.1324C22.1624 53.2327 12.8339 52.7388 6.95853 46.8634ZM30.5755 48.9239C31.1057 48.452 31.6113 47.9474 32.0927 47.4065L33.6364 48.9502L32.1155 50.4711L30.5719 48.9274C30.5732 48.9261 30.5743 48.9249 30.5755 48.9239ZM41.2884 61.4385L32.7654 52.9155C32.6433 52.7934 32.643 52.595 32.7654 52.4725L32.7778 52.4601C32.778 52.4599 32.7783 52.4598 32.7784 52.4595L35.638 49.5999C35.76 49.4778 35.9589 49.4778 36.081 49.5999L44.604 58.123C45.518 59.0371 45.518 60.5244 44.604 61.4385C43.6877 62.3547 42.2048 62.3547 41.2884 61.4385ZM51.8527 10.4764V3.2005L60.4854 11.8333H53.2097C52.4613 11.8333 51.8527 11.2245 51.8527 10.4764Z" fill="#0060FE"/>
<path d="M39.4215 6.08289H20.8231C19.7114 6.08289 18.8069 6.98739 18.8069 8.09914V11.692C18.8069 12.8038 19.7114 13.7083 20.8231 13.7083H39.4215C40.5333 13.7083 41.4378 12.8038 41.4378 11.692V8.09914C41.4376 6.98739 40.5331 6.08289 39.4215 6.08289ZM39.5628 11.6919C39.5628 11.7698 39.4994 11.8333 39.4214 11.8333H20.8231C20.7453 11.8333 20.6818 11.7699 20.6818 11.6919V8.09914C20.6818 8.02126 20.7451 7.95776 20.8231 7.95776H39.4215C39.4995 7.95776 39.5629 8.02114 39.5629 8.09914V11.6919H39.5628Z" fill="#0060FE"/>
<path d="M28.711 45.5456C34.345 39.9118 34.345 30.7446 28.711 25.1108C23.077 19.4768 13.9102 19.4768 8.27617 25.1108C6.08417 27.3029 4.67842 30.0765 4.21092 33.132C4.13267 33.6438 4.48392 34.1221 4.99579 34.2004C5.50779 34.279 5.98592 33.9274 6.06417 33.4155C6.47092 30.7575 7.69417 28.3441 9.60179 26.4364C14.5047 21.5335 22.4823 21.5335 27.3853 26.4364C32.0895 31.1406 32.2793 38.6751 27.9562 43.6088C27.5444 42.7709 26.844 42.0886 25.928 41.6854C24.8175 41.1965 22.903 40.8858 21.7254 40.7305L21.7204 39.5468C22.8584 38.7089 23.6662 37.4444 23.8983 35.9814C24.0984 35.8983 24.282 35.7754 24.4393 35.617C24.7532 35.301 24.9243 34.8819 24.9214 34.4368C24.913 33.1944 24.9142 31.1353 24.9142 29.9358C24.9142 28.8014 24.0877 27.8563 23.0053 27.6709C22.7975 26.6161 21.8657 25.8181 20.7508 25.8181H16.2254C13.8925 25.8181 11.9945 27.716 11.9945 30.0489V34.4543C11.9945 35.1381 12.4119 35.7264 13.0053 35.9778C13.2322 37.3961 13.9998 38.6286 15.0837 39.4668L15.0892 40.7584C13.9129 40.9235 12.0012 41.2504 10.8945 41.7486C10.053 42.1278 9.39542 42.7706 8.99067 43.5623C7.49192 41.837 6.49954 39.7571 6.10604 37.4954C6.01729 36.9854 5.53179 36.6438 5.02179 36.7325C4.51167 36.8213 4.17017 37.3068 4.25892 37.8168C4.77042 40.756 6.15954 43.4285 8.27629 45.5454C13.9349 51.2044 23.102 51.1549 28.711 45.5456ZM16.2254 27.6931H20.7508C20.984 27.6931 21.1738 27.8829 21.1738 28.1161C21.1738 28.8864 21.8004 29.513 22.5707 29.513H22.6165C22.8498 29.513 23.0395 29.7028 23.0395 29.936V30.4391L21.9064 30.3329C20.7964 30.229 19.6612 30.4923 18.7102 31.0746C18.1885 31.394 17.5895 31.5629 16.9779 31.5629H13.8695V30.0493C13.8694 28.75 14.9263 27.6931 16.2254 27.6931ZM13.8694 34.2541V33.4375H16.9778C17.9353 33.4375 18.8728 33.1731 19.6893 32.6731C20.2968 32.301 21.022 32.1328 21.7312 32.1993L23.0399 32.322C23.0407 32.8994 23.0422 33.6611 23.0454 34.2506C22.5235 34.3423 22.1174 34.7821 22.0855 35.3271C21.9739 37.2439 20.3789 38.7453 18.4544 38.7453C16.5339 38.7453 14.9365 37.2451 14.8177 35.3299C14.7842 34.7901 14.3843 34.353 13.8694 34.2541ZM18.4544 40.6201C18.9358 40.6201 19.4032 40.5569 19.8494 40.4403L19.8517 40.963C19.8527 41.2055 19.9083 41.4369 20.0068 41.6449C19.5407 41.9594 18.9885 42.1329 18.4097 42.1346C18.4068 42.1346 18.4039 42.1346 18.401 42.1346C17.8275 42.1346 17.2795 41.9658 16.815 41.6579C16.9118 41.449 16.966 41.2175 16.965 40.975L16.9627 40.4145C17.4379 40.5484 17.9384 40.6201 18.4544 40.6201ZM10.4585 45.0005C10.5947 44.3146 11.0325 43.743 11.6643 43.4583C12.302 43.1711 13.5304 42.8828 15.0774 42.6543C15.9612 43.5216 17.1445 44.0094 18.4007 44.0094H18.4149C19.6804 44.0056 20.8702 43.5074 21.7529 42.6261C23.3019 42.8416 24.5327 43.1195 25.1728 43.4014C25.8902 43.7171 26.3539 44.3186 26.4675 45.0516C21.8284 48.8619 15.0789 48.8445 10.4585 45.0005Z" fill="#0060FE"/>
</svg>
