<svg width="64" height="64" viewBox="0 0 64 64" fill="none" xmlns="http://www.w3.org/2000/svg">
<path d="M26.6104 14.4834H17.1265C16.2646 14.4834 15.564 15.1841 15.564 16.0459V31.5376C15.564 32.3989 16.2646 33.1001 17.1265 33.1001H26.6104C27.4722 33.1001 28.1729 32.3989 28.1729 31.5376V16.0459C28.1729 15.1841 27.4722 14.4834 26.6104 14.4834ZM20.9307 31.2251H17.439V27.3911H20.9307V31.2251ZM20.9307 25.5161H17.439V22.0669H20.9307V25.5161ZM20.9307 20.1919H17.439V16.3584H20.9307V20.1919ZM26.2979 31.2251H22.8057V27.3911H26.2979V31.2251ZM26.2979 25.5161H22.8057V22.0669H26.2979V25.5161ZM26.2979 20.1919H22.8057V16.3584H26.2979V20.1919Z" fill="#0060FE"/>
<path d="M39.1841 51.9121C38.666 51.9121 38.2466 52.332 38.2466 52.8496V55.1006C38.2466 55.6182 38.666 56.0381 39.1841 56.0381C39.7021 56.0381 40.1216 55.6182 40.1216 55.1006V52.8496C40.1216 52.332 39.7021 51.9121 39.1841 51.9121Z" fill="#0060FE"/>
<path d="M63.9912 42.4443C63.9477 42.1152 63.7793 41.8218 63.5171 41.6187L43.6553 26.251C43.2148 25.9106 42.6885 25.7305 42.1328 25.7305C41.5767 25.7305 41.0503 25.9106 40.6094 26.2515L37.6055 28.5757V25.8833C37.6055 25.3652 37.186 24.9458 36.668 24.9458C36.1499 24.9458 35.7305 25.3652 35.7305 25.8833V30.0264L20.749 41.6182C20.4883 41.8193 20.3149 42.1226 20.2739 42.4482C20.2314 42.7778 20.3198 43.105 20.5225 43.3691L22.0425 45.3462C22.2812 45.6553 22.6416 45.8325 23.0317 45.8325C23.3061 45.8325 23.5771 45.7402 23.7949 45.5718L42.1328 31.3833L55.9936 42.1079V61.6411H48.4429V59.8833C48.4429 59.3652 48.0234 58.9458 47.5054 58.9458C46.9873 58.9458 46.5679 59.3652 46.5679 59.8833V61.6411H37.6963V47.2788H46.5679V55.4771C46.5679 55.9951 46.9873 56.4146 47.5054 56.4146C48.0234 56.4146 48.4429 55.9951 48.4429 55.4771V46.9663C48.4429 46.105 47.7417 45.4038 46.8804 45.4038H37.3843C36.5225 45.4038 35.8213 46.105 35.8213 46.9663V61.6411H28.6973V59.084C28.6973 58.2222 27.9966 57.5215 27.1348 57.5215H26.2373C26.312 57.1484 26.3525 56.7632 26.3525 56.3687C26.3525 53.124 23.7124 50.4844 20.4678 50.4844C18.7065 50.4844 17.0586 51.2925 15.9565 52.603C15.5395 52.4712 15.0962 52.3994 14.6362 52.3994C14.2983 52.3994 13.9663 52.437 13.6436 52.5122C12.6226 50.7632 10.7173 49.6382 8.65771 49.6382C8.43847 49.6382 8.22168 49.6519 8.00781 49.6768V18.2949L21.8691 7.56934L35.7309 18.2949V21.5078C35.7309 22.0259 36.1504 22.4453 36.6684 22.4453C37.186 22.4453 37.6059 22.0259 37.6059 21.5078V19.7456L40.2075 21.7583C40.4248 21.9268 40.6958 22.019 40.9702 22.019C41.3613 22.019 41.7222 21.8413 41.96 21.5317C41.9634 21.5273 41.9668 21.5225 41.9702 21.5181L43.4263 19.5513L43.4355 19.5396C43.5317 19.4189 43.7871 19.0991 43.7275 18.6309C43.6841 18.3003 43.5151 18.0068 43.2534 17.8052L23.3921 2.4375C22.9517 2.09717 22.4253 1.91699 21.8691 1.91699C21.313 1.91699 20.7866 2.09717 20.3457 2.43799L14.8926 6.65723V5.47559C15.6299 5.35059 16.1934 4.70898 16.1934 3.93701V2.0625C16.1934 1.20068 15.4922 0.5 14.6309 0.5H7.03369C6.17236 0.5 5.47119 1.20068 5.47119 2.0625V3.93652C5.47119 4.70898 6.03467 5.3501 6.77197 5.47559V12.9404L0.486816 17.8037C0.225098 18.0049 0.0517577 18.3086 0.0107421 18.6333C-0.0322265 18.9634 0.055664 19.2905 0.258789 19.5552L1.77881 21.5322C2.01709 21.8418 2.37744 22.019 2.76807 22.019C3.04248 22.019 3.31299 21.9268 3.53174 21.7583L6.13281 19.7456V50.228C4.64453 50.9604 3.49853 52.3179 3.07275 53.9736C1.65918 54.5186 0.687988 55.8916 0.687988 57.4502C0.687988 57.6221 0.700195 57.791 0.722656 57.957C0.425293 58.2417 0.239746 58.6411 0.239746 59.084V61.9541C0.239746 62.8154 0.94043 63.5166 1.80225 63.5166H60.5859C61.104 63.5166 61.5234 63.0967 61.5234 62.5791C61.5234 62.061 61.104 61.6416 60.5859 61.6416H57.8686V43.5586L60.4707 45.5718C60.688 45.7397 60.959 45.8325 61.2334 45.8325C61.6245 45.8325 61.9853 45.6548 62.2231 45.3447C62.2265 45.3403 62.23 45.3359 62.2334 45.3315L63.6899 43.3643L63.6997 43.3521C63.7954 43.2319 64.0503 42.9121 63.9912 42.4443ZM20.4678 52.3594C22.6787 52.3594 24.4775 54.1582 24.4775 56.3687C24.4775 56.7695 24.417 57.1562 24.3071 57.5215H18.9595C19 57.2832 19.0225 57.0381 19.0225 56.7881C19.0225 55.5161 18.478 54.3696 17.6113 53.5669C18.3525 52.8145 19.3779 52.3594 20.4678 52.3594ZM7.34619 2.375H14.3184V3.62402H7.34619V2.375ZM13.0176 5.49902V8.10791L8.64697 11.4897V5.49902H13.0176ZM2.88184 19.8906L2.12549 18.9067L21.4927 3.9209C21.6035 3.83545 21.73 3.79199 21.8691 3.79199C22.0083 3.79199 22.1348 3.83545 22.2451 3.92041L41.5859 18.8857L40.8476 19.8833L22.4429 5.64258C22.105 5.38135 21.6333 5.38135 21.2954 5.64258L2.88184 19.8906ZM26.8223 61.6416H2.11475V59.3965H10.7505C11.2681 59.3965 11.688 58.9771 11.688 58.459C11.688 57.9409 11.2681 57.5215 10.7505 57.5215H2.56543C2.56445 57.4976 2.56299 57.4741 2.56299 57.4502C2.56299 56.5659 3.19141 55.8018 4.0581 55.6338C4.45019 55.5576 4.75098 55.2417 4.80762 54.8467C5.08105 52.9468 6.73633 51.5137 8.65771 51.5137C10.2534 51.5137 11.7124 52.5151 12.2881 54.0054C12.3818 54.2485 12.5723 54.4414 12.8145 54.5386C13.0566 54.6353 13.3276 54.6265 13.5635 54.5151C13.9004 54.356 14.2617 54.2749 14.6362 54.2749C16.021 54.2749 17.1475 55.4023 17.1475 56.7886C17.1475 57.0439 17.1074 57.2896 17.0361 57.5215H15.2505C14.7324 57.5215 14.313 57.9414 14.313 58.459C14.313 58.9771 14.7324 59.3965 15.2505 59.3965H26.8223V61.6416ZM61.1113 43.6968L42.7065 29.4565C42.3686 29.1948 41.897 29.1948 41.5591 29.4565L23.145 43.7041L22.3887 42.7202L41.7563 27.7349C41.8672 27.6489 41.9936 27.6055 42.1328 27.6055C42.2715 27.6055 42.3984 27.6489 42.5088 27.7344L61.8496 42.6992L61.1113 43.6968Z" fill="#0060FE"/>
</svg>
