<svg width="24" height="24" viewBox="0 0 24 24" fill="none" xmlns="http://www.w3.org/2000/svg">
<path d="M11.9333 11.5336C13.7333 11.5336 15.1333 10.0669 15.1333 8.26689C15.1333 6.46689 13.6666 5.06689 11.8666 5.06689C10.0666 5.06689 8.66663 6.53356 8.66663 8.26689C8.66663 10.0669 10.1333 11.5336 11.9333 11.5336ZM11.8666 6.40023C11.9333 6.40023 11.9333 6.40023 11.8666 6.40023C12.9333 6.40023 13.8 7.26689 13.8 8.33356C13.8 9.40023 12.9333 10.2002 11.8666 10.2002C10.8 10.2002 9.99996 9.33356 9.99996 8.33356C9.99996 7.26689 10.8666 6.40023 11.8666 6.40023V6.40023Z" fill="#0161FE"/>
<path d="M21.8 11.1334C20.5333 10 18.8667 9.40002 17.1333 9.46669H16.6C16.4667 10 16.2667 10.4667 16 10.8667C16.4 10.8 16.7333 10.8 17.1333 10.8C18.4 10.7334 19.6667 11.1334 20.6667 11.8667V16.6667H22V11.3334L21.8 11.1334Z" fill="#0161FE"/>
<path d="M15.6 5.20003C15.9333 4.40003 16.8666 4.00003 17.7333 4.33337C18.5333 4.6667 18.9333 5.60003 18.6 6.4667C18.3333 7.0667 17.7333 7.4667 17.1333 7.4667C17 7.4667 16.8 7.4667 16.6666 7.40003C16.7333 7.73337 16.7333 8.0667 16.7333 8.33337V8.73337C16.8666 8.73337 17 8.80003 17.1333 8.80003C18.8 8.80003 20.1333 7.4667 20.1333 5.8667C20.1333 4.20003 18.8 2.8667 17.2 2.8667C16.1333 2.8667 15.2 3.40003 14.6666 4.33337C15 4.53337 15.3333 4.80003 15.6 5.20003V5.20003Z" fill="#0161FE"/>
<path d="M8 10.9333C7.73333 10.5333 7.53333 10.0667 7.4 9.53335H6.86667C5.13333 9.46668 3.46667 10.0667 2.2 11.1333L2 11.3333V16.6667H3.33333V11.8667C4.4 11.1333 5.6 10.7333 6.86667 10.8C7.26667 10.8 7.66667 10.8667 8 10.9333Z" fill="#0161FE"/>
<path d="M6.86668 8.73336C7.00001 8.73336 7.13334 8.73336 7.26668 8.66669V8.26669C7.26668 7.93336 7.26668 7.60003 7.33334 7.33336C7.20001 7.40003 7.00001 7.40003 6.86668 7.40003C6.00001 7.40003 5.26668 6.66669 5.26668 5.80003C5.26668 4.93336 6.00001 4.20003 6.86668 4.20003C7.53334 4.20003 8.13334 4.60003 8.40001 5.20003C8.66668 4.86669 9.06668 4.53336 9.40001 4.26669C8.53334 2.86669 6.73334 2.40002 5.33334 3.26669C3.93334 4.13336 3.46668 5.93336 4.33334 7.33336C4.86668 8.20003 5.80001 8.73336 6.86668 8.73336V8.73336Z" fill="#0161FE"/>
<path d="M17.4001 15.1333L17.2667 14.9333C15.9334 13.4667 14.0667 12.6 12.0667 12.6667C10.0667 12.6 8.13341 13.4667 6.80008 14.9333L6.66675 15.1333V20.2C6.66675 20.8 7.13341 21.3333 7.80008 21.3333H16.3334C16.9334 21.3333 17.4667 20.8 17.4667 20.2V15.1333H17.4001ZM16.0667 20H8.00008V15.6C9.06675 14.5333 10.5334 14 12.0667 14C13.5334 13.9333 15.0001 14.5333 16.0667 15.6V20Z" fill="#0161FE"/>
</svg>
