<svg width="64" height="64" viewBox="0 0 64 64" fill="none" xmlns="http://www.w3.org/2000/svg">
<g clip-path="url(#clip0_83_88)">
<path d="M7.90763 28.3315L8.6875 27.65V62.1249H6.9375C6.41963 62.1249 6 62.5446 6 63.0624C6 63.5801 6.41963 63.9999 6.9375 63.9999H45.1741C45.692 63.9999 46.1116 63.5801 46.1116 63.0624C46.1116 62.5446 45.692 62.1249 45.1741 62.1249C43.7751 62.1249 39.996 62.1249 38.4215 62.1249C37.455 62.1249 36.6675 61.3406 36.6635 60.3744C59.5558 60.3744 59.0885 60.367 59.399 60.3669C59.399 61.3363 58.6104 62.1249 57.6411 62.1249H49.5493C49.0314 62.1249 48.6118 62.5446 48.6118 63.0624C48.6118 63.5801 49.0314 63.9999 49.5493 63.9999H57.6411C59.6443 63.9999 61.274 62.3701 61.274 60.3669C61.274 59.4156 60.5555 58.4994 59.2839 58.4994C59.4744 58.0881 59.5815 57.6306 59.5815 57.1484V45.1405C59.5815 43.3617 58.1344 41.9145 56.3555 41.9145H55.3125V36.9265C55.3125 36.4087 54.8929 35.989 54.375 35.989C53.8571 35.989 53.4375 36.4087 53.4375 36.9265V41.9145H39.707C38.8824 41.9145 38.1294 42.2259 37.5585 42.7368L36.414 42.2935L36.4138 41.0197C38.352 39.6567 39.6221 37.405 39.6221 34.8607V31.5546C40.3623 31.2226 40.8799 30.4802 40.8799 29.618V24.6031C40.8799 23.786 40.5481 23.0288 39.9456 22.471C39.3578 21.9266 38.5823 21.6484 37.8153 21.707C37.7033 21.7155 37.5793 21.6651 37.5573 21.5518C37.205 19.7507 36.0283 18.8376 34.0598 18.8376H27.4704C24.539 18.8376 22.1541 21.2225 22.1541 24.1539V28.9595C22.1541 30.3022 23.1106 31.4258 24.3781 31.6846V34.8607C24.3781 37.1924 25.5255 39.5735 27.5825 41.0164V42.2668L18.9959 45.6204C18.9906 45.6225 18.9854 45.6246 18.9801 45.6268C17.0629 46.4159 14.9993 48.6741 14.9993 51.7676V62.1249H10.5625V26.0112L32 7.27537L53.4375 26.0114V32.5515C53.4375 33.0692 53.8571 33.489 54.375 33.489C54.8929 33.489 55.3125 33.0692 55.3125 32.5515V27.65L56.0924 28.3316C57.39 29.4654 59.3681 29.3324 60.5016 28.035C61.6384 26.7347 61.506 24.7624 60.2053 23.6256L55.3124 19.3494V5.34225H55.5608C56.4936 5.34225 57.2526 4.58325 57.2526 3.65025V1.692C57.2528 0.759 56.4938 0 55.5609 0H46.903C45.9701 0 45.2111 0.759 45.2111 1.692V3.65037C45.2111 4.58325 45.9701 5.34237 46.903 5.34237H47.1514V12.2169L34.0565 0.772C32.8841 -0.2525 31.1159 -0.252625 29.9435 0.772L3.79463 23.6256C2.49412 24.7621 2.36125 26.7344 3.49825 28.0351C4.63288 29.3334 6.61113 29.4647 7.90763 28.3315ZM38.3559 45.1405C38.3559 44.4027 38.9565 43.7895 39.707 43.7895H56.3555C57.1004 43.7895 57.7065 44.3956 57.7065 45.1405V57.1484C57.7065 57.8933 57.1004 58.4994 56.3555 58.4994H39.7069C38.962 58.4994 38.3559 57.8934 38.3559 57.1484V45.1405ZM24.9353 29.8657C24.4355 29.8657 24.029 29.4592 24.029 28.9595V24.1539C24.029 22.2564 25.5728 20.7126 27.4703 20.7126H34.0596C35.3778 20.7126 35.5841 21.2324 35.7171 21.9116C35.9189 22.9435 36.8828 23.6593 37.9591 23.5765C38.2021 23.557 38.4688 23.6588 38.6718 23.8468C38.7961 23.962 39.0049 24.2135 39.0049 24.6033V29.6181C39.0049 30.1683 37.5538 29.7905 37.4401 28.673C37.4256 28.5256 37.4565 28.3144 37.3048 28.0365C36.9035 27.3015 35.8431 27.3084 35.4498 28.0441C34.8471 29.1711 33.682 29.8659 32.4139 29.8659C31.1233 29.8657 25.7395 29.8657 24.9353 29.8657ZM26.253 34.8607V31.7407H32.4139C33.7725 31.7407 35.0876 31.2173 36.0735 30.281C36.465 30.8831 37.0535 31.3458 37.747 31.5771V34.8607C37.747 37.9899 35.196 40.5124 32.0953 40.5124C28.6046 40.5124 26.253 37.8015 26.253 34.8607ZM35.5394 43.9656C35.5718 43.9781 35.8039 44.068 35.8363 44.0805C33.6465 46.313 30.082 46.0464 28.143 44.0607L28.5931 43.885C28.9348 43.7516 29.4574 43.2805 29.4574 42.5029V41.9639C30.9865 42.4823 32.8393 42.5635 34.5386 41.9789L34.5389 42.5047V42.5093C34.5406 43.1598 34.9339 43.7315 35.5394 43.9656ZM16.8741 51.7676C16.8741 49.3907 18.553 47.8338 19.6863 47.3638L26.2896 44.7848C28.7148 47.9008 33.3895 48.4394 36.481 46.016V57.1485C36.481 57.6151 36.5858 58.0841 36.7776 58.4995C35.5015 58.4995 34.7885 59.4235 34.7885 60.367C34.7885 60.9985 34.9603 61.6209 35.2429 62.125H22.7096C22.7096 61.1054 22.7096 52.89 22.7096 51.7316C22.7096 51.2139 22.29 50.7941 21.7721 50.7941C21.2543 50.7941 20.8346 51.2139 20.8346 51.7316V54.6879H16.874V51.7676H16.8741ZM16.8741 56.5628H20.8348V62.1249H16.8741V56.5628ZM47.0861 3.46725V1.875H55.3778V3.46725C54.3913 3.46725 48.0413 3.46725 47.0861 3.46725ZM53.4375 5.34225V17.7106L49.0265 13.8555V5.34225H53.4375ZM5.0285 25.0374L31.1773 2.18388C31.6463 1.774 32.3535 1.774 32.8225 2.18388C33.9875 3.202 57.836 24.0451 58.9713 25.0375C59.4915 25.4924 59.5445 26.281 59.0898 26.8013C58.6364 27.32 57.8449 27.3735 57.326 26.9199C56.3003 26.0234 33.9916 6.526 32.963 5.62687C32.4146 5.1475 31.5864 5.14637 31.037 5.62687L6.67375 26.9198C6.15475 27.3735 5.3635 27.32 4.90988 26.8011C4.456 26.2816 4.50738 25.493 5.0285 25.0374Z" fill="#0060FE"/>
<path d="M47.3616 52.082H48.701C49.2188 52.082 49.6385 51.6622 49.6385 51.1445C49.6385 50.6267 49.2188 50.207 48.701 50.207H47.3616C46.8437 50.207 46.4241 50.6267 46.4241 51.1445C46.4241 51.6622 46.8438 52.082 47.3616 52.082Z" fill="#0060FE"/>
</g>
<defs>
<clipPath id="clip0_83_88">
<rect width="64" height="64" fill="white"/>
</clipPath>
</defs>
</svg>
